<?xml version="1.0" encoding="utf-8"?>
<!-- Generator: Adobe Illustrator 16.0.0, SVG Export Plug-In . SVG Version: 6.00 Build 0)  -->
<!DOCTYPE svg PUBLIC "-//W3C//DTD SVG 1.1//EN" "http://www.w3.org/Graphics/SVG/1.1/DTD/svg11.dtd">
<svg version="1.1" id="Layer_1" xmlns="http://www.w3.org/2000/svg" xmlns:xlink="http://www.w3.org/1999/xlink" x="0px" y="0px"
	 width="543.005px" height="119.171px" viewBox="0 0 543.005 119.171" enable-background="new 0 0 543.005 119.171"
	 xml:space="preserve">
<rect width="544.606" height="120.886"/>
<path fill="#B5231D" d="M95.44,64.468c0,0-0.174-1.764-0.188-1.858c-1.18-7.333-4.542-13.934-9.39-19.128H32.277
	c-6.112,6.548-9.858,15.331-9.858,24.995c0,20.241,16.409,36.65,36.65,36.65c18.073,0,33.093-13.083,36.101-30.296
	c0.021-0.11,0.245-1.664,0.245-1.664l-24.933-1.239c0,0-0.566,1.933-0.582,1.966c-1.96,4.108-6.15,6.948-11.006,6.948
	c-6.732,0-12.19-5.458-12.19-12.19s5.458-12.19,12.19-12.19c4.676,0,8.735,2.633,10.779,6.497c0.018,0.032,0.858,2.675,0.858,2.675
	L95.44,64.468z"/>
<g>
	<g>
		<defs>
			<rect id="SVGID_1_" x="21.418" y="43.561" width="75.021" height="63.646"/>
		</defs>
		<clipPath id="SVGID_2_">
			<use xlink:href="#SVGID_1_"  overflow="visible"/>
		</clipPath>
	</g>
	<text transform="matrix(1 0 0 1 99.4731 90.7671)" fill="#FFFFFF" font-family="'Frutiger-Roman'" font-size="23">deepcarbon.net</text>
	<text transform="matrix(1 0 0 1 99.4731 63.3052)" fill="#FFFFFF" font-family="'Frutiger-UltraBlack'" font-size="25">DEEP CARBON OBSERVATORY</text>
</g>
<text transform="matrix(1 0 0 1 100.6021 29.1377)" fill="#FFFFFF" font-family="'Frutiger-Roman'" font-size="17" letter-spacing="3">SPONSORED BY THE</text>
</svg>
