<?xml version="1.0" encoding="utf-8"?>
<!-- Generator: Adobe Illustrator 16.0.0, SVG Export Plug-In . SVG Version: 6.00 Build 0)  -->
<!DOCTYPE svg PUBLIC "-//W3C//DTD SVG 1.1//EN" "http://www.w3.org/Graphics/SVG/1.1/DTD/svg11.dtd">
<svg version="1.1" id="Layer_1" xmlns="http://www.w3.org/2000/svg" xmlns:xlink="http://www.w3.org/1999/xlink" x="0px" y="0px"
	 width="1116.111px" height="547.781px" viewBox="0 0 1116.111 547.781" enable-background="new 0 0 1116.111 547.781"
	 xml:space="preserve">
<image display="none" overflow="visible" width="1115" height="495" xlink:href="CMC-Final-Image.png"  transform="matrix(1 0 0 1 1.2363 2.2056)">
</image>
<g id="Layer_2" display="none">
	<rect x="1.234" y="1.894" display="inline" width="1116.315" height="546.312"/>
</g>
<g>
	<g opacity="0.5">
		<path fill="#FFFFFF" d="M74.026,265.871c20.817,0,33.17-10.752,33.17-27.223c0-18.072-10.98-26.765-33.628-26.765
			c-1.372,0-2.974,0-4.346,0v-16.699c0.686,0,1.601,0,2.288,0c22.647,0,33.628-6.863,33.628-22.419
			c0-13.954-10.752-23.562-27.909-23.562c-9.607,0-17.843,2.516-25.621,8.464c8.922,0.915,13.955,6.634,13.955,15.098
			c0,9.15-7.091,16.242-18.072,16.242s-18.759-7.778-18.759-18.758c0-18.758,21.275-35.687,55.36-35.687
			c34.085,0,53.987,15.556,53.987,35.458c0,17.615-11.209,28.138-34.314,32.713c25.164,4.347,38.203,17.157,38.203,36.144
			c0,24.935-23.104,42.778-63.138,42.778c-33.856,0-55.131-17.614-55.131-38.66c0-13.039,8.464-22.189,21.046-22.189
			c10.98,0,17.843,7.32,17.843,17.386c0,9.836-6.634,16.699-17.386,16.699c-0.457,0-1.144,0-1.601,0
			C51.378,262.21,61.215,265.871,74.026,265.871z"/>
		<path fill="#FFFFFF" d="M169.874,261.295h10.294c14.641,0,17.843-1.373,17.843-13.497v-73.203h-28.137v-16.242
			c21.046-0.915,32.941-6.405,39.804-21.275h18.53v111.178c0,11.896,2.288,13.039,16.013,13.039h11.667v16.471h-86.014V261.295z"/>
	</g>
	<g opacity="0.5">
		<path fill="#FFFFFF" d="M387.202,261.295h10.294c14.641,0,17.843-1.373,17.843-13.497v-73.203h-28.138v-16.242
			c21.046-0.915,32.941-6.405,39.805-21.275h18.529v111.178c0,11.896,2.288,13.039,16.013,13.039h11.667v16.471h-86.014V261.295z"/>
		<path fill="#FFFFFF" d="M546.416,134.562c37.517,0,64.51,29.51,64.51,73.661s-26.993,73.432-64.51,73.432
			s-64.282-29.281-64.282-73.432S508.899,134.562,546.416,134.562z M546.416,263.812c20.359,0,29.053-18.072,29.053-55.589
			s-8.693-55.817-29.053-55.817c-20.131,0-28.824,18.301-28.824,55.817S526.056,263.812,546.416,263.812z"/>
		<path fill="#FFFFFF" d="M631.969,261.295h10.295c14.641,0,17.843-1.373,17.843-13.497v-73.203h-28.138v-16.242
			c21.047-0.915,32.941-6.405,39.805-21.275h18.529v111.178c0,11.896,2.287,13.039,16.014,13.039h11.666v16.471h-86.014V261.295z"/>
	</g>
	<g opacity="0.5">
		<path fill="#FFFFFF" d="M845.012,272.504c0-24.02,10.066-40.49,32.484-53.301c12.125-7.092,23.562-11.438,32.484-16.242
			c9.379-5.032,15.098-14.641,15.098-26.078c0-15.099-12.811-26.308-31.34-26.308c-13.497,0-23.562,6.177-28.824,17.614
			c2.746-0.915,5.49-1.144,7.777-1.144c9.609,0,15.785,5.948,15.785,15.098c0,10.751-7.549,18.072-18.301,18.072
			c-12.582,0-21.961-9.836-21.961-24.02c0-21.732,21.961-41.634,53.529-41.634c35.688,0,57.877,18.301,57.877,45.294
			c0,25.164-14.412,35.229-44.379,42.778c-23.791,5.947-40.949,10.065-50.557,29.738c6.176-4.117,12.582-5.947,19.902-5.947
			c17.156,0,33.627,7.32,46.666,7.32c13.04,0,17.844-7.778,18.988-25.85h13.039c0,1.144,0,2.059,0,3.203
			c0,32.713-13.497,50.556-35.458,50.556c-8.235,0-18.759-2.974-31.569-8.922c-8.922-4.346-16.471-9.607-24.934-9.607
			c-7.779,0-11.668,4.804-12.811,15.556h-13.27C845.012,276.623,845.012,274.563,845.012,272.504z"/>
		<path fill="#FFFFFF" d="M1020.697,269.302c0-19.445,2.059-34.771,8.234-47.582c9.607-20.131,27.68-36.373,45.98-57.419
			c-7.092,3.203-13.953,4.804-20.359,4.804c-12.811,0-23.791-4.575-32.941-4.575c-16.471,0-22.189,10.98-22.189,35.687
			c0,0.458,0,0.915,0,1.373h-15.785v-63.596h16.7v16.242c8.692-12.353,17.614-17.386,30.882-17.386
			c17.387,0,32.713,11.209,43.922,11.209c6.406,0,10.523-3.202,13.04-9.607h14.641c-1.372,21.274-18.759,38.203-32.941,62.223
			c-12.581,21.274-17.843,41.634-17.843,67.255c0,3.432,0,7.092,0.229,10.752h-31.34
			C1020.926,275.479,1020.697,272.276,1020.697,269.302z"/>
	</g>
	<g>
		<path fill="#B7312C" d="M70.026,261.871c20.817,0,33.17-10.752,33.17-27.223c0-18.072-10.98-26.765-33.628-26.765
			c-1.372,0-2.974,0-4.346,0v-16.699c0.686,0,1.601,0,2.288,0c22.647,0,33.628-6.863,33.628-22.419
			c0-13.954-10.752-23.562-27.909-23.562c-9.607,0-17.843,2.516-25.621,8.464c8.922,0.915,13.955,6.634,13.955,15.098
			c0,9.15-7.091,16.242-18.072,16.242s-18.759-7.778-18.759-18.758c0-18.758,21.275-35.687,55.36-35.687
			c34.085,0,53.987,15.556,53.987,35.458c0,17.615-11.209,28.138-34.314,32.713c25.164,4.347,38.203,17.157,38.203,36.144
			c0,24.935-23.104,42.778-63.138,42.778c-33.856,0-55.131-17.614-55.131-38.66c0-13.039,8.464-22.189,21.046-22.189
			c10.98,0,17.843,7.32,17.843,17.386c0,9.836-6.634,16.699-17.386,16.699c-0.457,0-1.144,0-1.601,0
			C47.378,258.21,57.215,261.871,70.026,261.871z"/>
		<path fill="#B7312C" d="M165.874,257.295h10.294c14.641,0,17.843-1.373,17.843-13.497v-73.203h-28.137v-16.242
			c21.046-0.915,32.941-6.405,39.804-21.275h18.53v111.178c0,11.896,2.288,13.039,16.013,13.039h11.667v16.471h-86.014V257.295z"/>
	</g>
	<g>
		<path fill="#B7312C" d="M383.202,257.295h10.294c14.641,0,17.843-1.373,17.843-13.497v-73.203h-28.138v-16.242
			c21.046-0.915,32.941-6.405,39.805-21.275h18.529v111.178c0,11.896,2.288,13.039,16.013,13.039h11.667v16.471h-86.014V257.295z"/>
		<path fill="#B7312C" d="M542.416,130.562c37.517,0,64.51,29.51,64.51,73.661s-26.993,73.432-64.51,73.432
			s-64.282-29.281-64.282-73.432S504.899,130.562,542.416,130.562z M542.416,259.812c20.359,0,29.053-18.072,29.053-55.589
			s-8.693-55.817-29.053-55.817c-20.131,0-28.824,18.301-28.824,55.817S522.056,259.812,542.416,259.812z"/>
		<path fill="#B7312C" d="M627.969,257.295h10.295c14.641,0,17.843-1.373,17.843-13.497v-73.203h-28.138v-16.242
			c21.047-0.915,32.941-6.405,39.805-21.275h18.529v111.178c0,11.896,2.287,13.039,16.014,13.039h11.666v16.471h-86.014V257.295z"/>
	</g>
	<g>
		<path fill="#B7312C" d="M841.012,268.504c0-24.02,10.066-40.49,32.484-53.301c12.125-7.092,23.562-11.438,32.484-16.242
			c9.379-5.032,15.098-14.641,15.098-26.078c0-15.099-12.811-26.308-31.34-26.308c-13.497,0-23.562,6.177-28.824,17.614
			c2.746-0.915,5.49-1.144,7.777-1.144c9.609,0,15.785,5.948,15.785,15.098c0,10.751-7.549,18.072-18.301,18.072
			c-12.582,0-21.961-9.836-21.961-24.02c0-21.732,21.961-41.634,53.529-41.634c35.688,0,57.877,18.301,57.877,45.294
			c0,25.164-14.412,35.229-44.379,42.778c-23.791,5.947-40.949,10.065-50.557,29.738c6.176-4.117,12.582-5.947,19.902-5.947
			c17.156,0,33.627,7.32,46.666,7.32c13.04,0,17.844-7.778,18.988-25.85h13.039c0,1.144,0,2.059,0,3.203
			c0,32.713-13.497,50.556-35.458,50.556c-8.235,0-18.759-2.974-31.569-8.922c-8.922-4.346-16.471-9.607-24.934-9.607
			c-7.779,0-11.668,4.804-12.811,15.556h-13.27C841.012,272.623,841.012,270.563,841.012,268.504z"/>
		<path fill="#B7312C" d="M1016.697,265.302c0-19.445,2.059-34.771,8.234-47.582c9.607-20.131,27.68-36.373,45.98-57.419
			c-7.092,3.203-13.953,4.804-20.359,4.804c-12.811,0-23.791-4.575-32.941-4.575c-16.471,0-22.189,10.98-22.189,35.687
			c0,0.458,0,0.915,0,1.373h-15.785v-63.596h16.7v16.242c8.692-12.353,17.614-17.386,30.882-17.386
			c17.387,0,32.713,11.209,43.922,11.209c6.406,0,10.523-3.202,13.04-9.607h14.641c-1.372,21.274-18.759,38.203-32.941,62.223
			c-12.581,21.274-17.843,41.634-17.843,67.255c0,3.432,0,7.092,0.229,10.752h-31.34
			C1016.926,271.479,1016.697,268.276,1016.697,265.302z"/>
	</g>
	<g>
		<path fill="#98D8EE" d="M25.413,324.206v-18.908h4.379l4.93,9.396l1.856,4.176h0.116c-0.097-1.005-0.208-2.127-0.333-3.364
			c-0.126-1.237-0.188-2.416-0.188-3.538v-6.67h4.06v18.908h-4.379l-4.93-9.425l-1.856-4.118h-0.116
			c0.097,1.044,0.208,2.165,0.333,3.364c0.125,1.198,0.188,2.358,0.188,3.479v6.699H25.413z"/>
		<path fill="#98D8EE" d="M50.788,324.553c-1.025,0-1.982-0.169-2.871-0.507c-0.89-0.338-1.663-0.831-2.32-1.479
			c-0.657-0.647-1.17-1.436-1.537-2.363c-0.368-0.928-0.551-1.991-0.551-3.19c0-1.159,0.193-2.208,0.58-3.146
			c0.387-0.938,0.894-1.729,1.522-2.378c0.628-0.647,1.349-1.146,2.161-1.493s1.653-0.522,2.523-0.522
			c1.024,0,1.918,0.175,2.683,0.522c0.763,0.348,1.401,0.831,1.914,1.45s0.894,1.349,1.146,2.189s0.377,1.754,0.377,2.74
			c0,0.387-0.02,0.754-0.058,1.103c-0.039,0.348-0.078,0.608-0.116,0.782h-8.613c0.193,1.044,0.624,1.812,1.291,2.306
			s1.483,0.739,2.45,0.739c1.025,0,2.059-0.318,3.103-0.957l1.421,2.581c-0.735,0.503-1.551,0.899-2.45,1.189
			S51.658,324.553,50.788,324.553z M47.598,315.448h5.191c0-0.812-0.184-1.469-0.551-1.973c-0.368-0.502-0.986-0.754-1.856-0.754
			c-0.677,0-1.271,0.223-1.784,0.667C48.086,313.833,47.752,314.52,47.598,315.448z"/>
		<path fill="#98D8EE" d="M61.605,324.206l-3.596-14.384h4.234l1.392,6.67c0.116,0.716,0.222,1.421,0.319,2.117
			c0.096,0.695,0.203,1.411,0.319,2.146h0.116c0.135-0.734,0.265-1.459,0.391-2.175c0.125-0.715,0.276-1.411,0.45-2.088l1.595-6.67
			h3.683l1.624,6.67c0.174,0.716,0.329,1.421,0.464,2.117c0.135,0.695,0.28,1.411,0.435,2.146h0.116
			c0.135-0.734,0.247-1.45,0.333-2.146c0.087-0.696,0.198-1.401,0.333-2.117l1.363-6.67h3.944l-3.451,14.384h-4.988l-1.305-5.742
			c-0.155-0.677-0.29-1.353-0.406-2.03c-0.116-0.676-0.242-1.401-0.377-2.175h-0.116c-0.136,0.773-0.256,1.499-0.362,2.175
			c-0.107,0.678-0.228,1.354-0.363,2.03l-1.276,5.742H61.605z"/>
		<path fill="#98D8EE" d="M93.765,324.553c-1.005,0-1.938-0.169-2.798-0.507c-0.86-0.338-1.609-0.827-2.248-1.465
			s-1.141-1.426-1.508-2.363c-0.368-0.938-0.551-2.006-0.551-3.205c0-1.198,0.203-2.267,0.609-3.204
			c0.406-0.938,0.952-1.726,1.639-2.363c0.686-0.639,1.483-1.126,2.393-1.465c0.908-0.338,1.856-0.508,2.842-0.508
			c0.889,0,1.677,0.146,2.364,0.436c0.686,0.29,1.3,0.657,1.841,1.102l-2.001,2.755c-0.677-0.561-1.325-0.841-1.943-0.841
			c-1.044,0-1.866,0.368-2.465,1.103s-0.899,1.73-0.899,2.986c0,1.258,0.305,2.253,0.914,2.987c0.609,0.735,1.377,1.103,2.306,1.103
			c0.464,0,0.914-0.102,1.349-0.305c0.435-0.203,0.845-0.45,1.232-0.74l1.682,2.784c-0.715,0.619-1.489,1.059-2.32,1.319
			C95.37,324.423,94.558,324.553,93.765,324.553z"/>
		<path fill="#98D8EE" d="M104.379,324.553c-0.657,0-1.252-0.111-1.783-0.333c-0.532-0.223-0.981-0.531-1.349-0.928
			s-0.652-0.855-0.855-1.378s-0.305-1.092-0.305-1.711c0-1.508,0.638-2.688,1.914-3.538c1.276-0.851,3.335-1.421,6.177-1.711
			c-0.039-0.638-0.228-1.146-0.565-1.522c-0.339-0.377-0.904-0.565-1.697-0.565c-0.619,0-1.232,0.116-1.841,0.348
			c-0.609,0.232-1.262,0.551-1.958,0.957l-1.537-2.812c0.928-0.561,1.899-1.016,2.915-1.363s2.093-0.522,3.233-0.522
			c1.856,0,3.272,0.527,4.249,1.581c0.976,1.054,1.464,2.692,1.464,4.915v8.236h-3.48l-0.29-1.479h-0.116
			c-0.619,0.541-1.267,0.981-1.943,1.319C105.935,324.384,105.191,324.553,104.379,324.553z M105.829,321.248
			c0.483,0,0.899-0.106,1.247-0.319c0.348-0.212,0.715-0.512,1.102-0.898v-2.523c-1.508,0.213-2.552,0.522-3.132,0.928
			c-0.58,0.406-0.87,0.89-0.87,1.45c0,0.464,0.149,0.808,0.449,1.03C104.925,321.136,105.326,321.248,105.829,321.248z"/>
		<path fill="#98D8EE" d="M116.037,324.206v-14.384h3.48l0.29,2.522h0.116c0.522-0.985,1.15-1.711,1.885-2.175
			s1.469-0.696,2.204-0.696c0.406,0,0.74,0.024,1,0.073c0.261,0.048,0.498,0.121,0.71,0.217l-0.696,3.684
			c-0.271-0.077-0.522-0.135-0.754-0.174s-0.503-0.059-0.812-0.059c-0.542,0-1.107,0.193-1.697,0.58s-1.078,1.073-1.464,2.06v8.352
			H116.037z"/>
		<path fill="#98D8EE" d="M135.119,324.553c-0.638,0-1.281-0.159-1.928-0.479c-0.648-0.318-1.252-0.787-1.812-1.406h-0.116
			l-0.348,1.537h-3.335v-20.329h4.263v4.988l-0.116,2.204c0.56-0.503,1.164-0.895,1.812-1.175c0.647-0.28,1.309-0.421,1.986-0.421
			c0.87,0,1.653,0.175,2.349,0.522c0.696,0.348,1.291,0.837,1.783,1.465c0.493,0.628,0.87,1.392,1.131,2.291
			c0.261,0.898,0.391,1.899,0.391,3.001c0,1.237-0.169,2.34-0.507,3.306c-0.338,0.968-0.793,1.784-1.363,2.451
			c-0.571,0.667-1.218,1.174-1.943,1.522C136.641,324.379,135.892,324.553,135.119,324.553z M134.133,321.074
			c0.734,0,1.363-0.334,1.885-1.001c0.522-0.667,0.783-1.744,0.783-3.233c0-2.59-0.832-3.886-2.494-3.886
			c-0.851,0-1.672,0.435-2.465,1.305v5.888c0.387,0.348,0.773,0.59,1.16,0.725C133.388,321.006,133.765,321.074,134.133,321.074z"/>
		<path fill="#98D8EE" d="M150.373,324.553c-0.909,0-1.789-0.169-2.639-0.507s-1.6-0.827-2.248-1.465s-1.165-1.426-1.551-2.363
			c-0.387-0.938-0.58-2.006-0.58-3.205c0-1.198,0.193-2.267,0.58-3.204c0.387-0.938,0.903-1.726,1.551-2.363
			c0.648-0.639,1.397-1.126,2.248-1.465c0.851-0.338,1.73-0.508,2.639-0.508c0.909,0,1.784,0.17,2.625,0.508
			c0.841,0.339,1.585,0.826,2.233,1.465c0.647,0.638,1.165,1.426,1.552,2.363c0.386,0.938,0.58,2.006,0.58,3.204
			c0,1.199-0.193,2.268-0.58,3.205c-0.387,0.938-0.904,1.726-1.552,2.363c-0.648,0.638-1.392,1.127-2.233,1.465
			S151.282,324.553,150.373,324.553z M150.373,321.103c0.87,0,1.527-0.367,1.972-1.103c0.444-0.734,0.667-1.729,0.667-2.987
			c0-1.256-0.223-2.252-0.667-2.986c-0.445-0.734-1.102-1.103-1.972-1.103c-0.89,0-1.551,0.368-1.986,1.103s-0.653,1.73-0.653,2.986
			c0,1.258,0.218,2.253,0.653,2.987C148.822,320.736,149.483,321.103,150.373,321.103z"/>
		<path fill="#98D8EE" d="M160.291,324.206v-14.384h3.48l0.29,1.827h0.116c0.619-0.58,1.295-1.088,2.03-1.522
			c0.735-0.436,1.595-0.653,2.581-0.653c1.566,0,2.702,0.513,3.408,1.537c0.706,1.025,1.059,2.446,1.059,4.264v8.932h-4.263v-8.381
			c0-1.044-0.141-1.759-0.42-2.146c-0.281-0.386-0.73-0.58-1.349-0.58c-0.542,0-1.005,0.121-1.392,0.363
			c-0.387,0.241-0.812,0.585-1.276,1.029v9.715H160.291z"/>
		<path fill="#98D8EE" d="M176.241,318.376v-3.016h7.134v3.016H176.241z"/>
		<path fill="#98D8EE" d="M194.046,324.553c-0.638,0-1.281-0.159-1.928-0.479c-0.648-0.318-1.252-0.787-1.812-1.406h-0.116
			l-0.348,1.537h-3.335v-20.329h4.263v4.988l-0.116,2.204c0.56-0.503,1.164-0.895,1.812-1.175c0.647-0.28,1.309-0.421,1.986-0.421
			c0.87,0,1.653,0.175,2.349,0.522c0.696,0.348,1.291,0.837,1.783,1.465c0.493,0.628,0.87,1.392,1.131,2.291
			c0.261,0.898,0.391,1.899,0.391,3.001c0,1.237-0.169,2.34-0.507,3.306c-0.338,0.968-0.793,1.784-1.363,2.451
			c-0.571,0.667-1.218,1.174-1.943,1.522C195.568,324.379,194.819,324.553,194.046,324.553z M193.06,321.074
			c0.734,0,1.363-0.334,1.885-1.001c0.522-0.667,0.783-1.744,0.783-3.233c0-2.59-0.832-3.886-2.494-3.886
			c-0.851,0-1.672,0.435-2.465,1.305v5.888c0.387,0.348,0.773,0.59,1.16,0.725C192.315,321.006,192.692,321.074,193.06,321.074z"/>
		<path fill="#98D8EE" d="M209.561,324.553c-1.025,0-1.982-0.169-2.871-0.507c-0.89-0.338-1.663-0.831-2.32-1.479
			c-0.657-0.647-1.17-1.436-1.537-2.363c-0.368-0.928-0.551-1.991-0.551-3.19c0-1.159,0.193-2.208,0.58-3.146
			c0.387-0.938,0.894-1.729,1.522-2.378c0.628-0.647,1.349-1.146,2.161-1.493s1.653-0.522,2.523-0.522
			c1.024,0,1.918,0.175,2.683,0.522c0.763,0.348,1.401,0.831,1.914,1.45s0.894,1.349,1.146,2.189s0.377,1.754,0.377,2.74
			c0,0.387-0.02,0.754-0.058,1.103c-0.039,0.348-0.078,0.608-0.116,0.782H206.4c0.193,1.044,0.624,1.812,1.291,2.306
			s1.483,0.739,2.45,0.739c1.025,0,2.059-0.318,3.103-0.957l1.421,2.581c-0.735,0.503-1.551,0.899-2.45,1.189
			S210.431,324.553,209.561,324.553z M206.371,315.448h5.191c0-0.812-0.184-1.469-0.551-1.973c-0.368-0.502-0.986-0.754-1.856-0.754
			c-0.677,0-1.271,0.223-1.784,0.667C206.859,313.833,206.525,314.52,206.371,315.448z"/>
		<path fill="#98D8EE" d="M221.451,324.553c-0.657,0-1.252-0.111-1.783-0.333c-0.532-0.223-0.981-0.531-1.349-0.928
			s-0.652-0.855-0.855-1.378s-0.305-1.092-0.305-1.711c0-1.508,0.638-2.688,1.914-3.538c1.276-0.851,3.335-1.421,6.177-1.711
			c-0.039-0.638-0.228-1.146-0.565-1.522c-0.339-0.377-0.904-0.565-1.697-0.565c-0.619,0-1.232,0.116-1.841,0.348
			c-0.609,0.232-1.262,0.551-1.958,0.957l-1.537-2.812c0.928-0.561,1.899-1.016,2.915-1.363s2.093-0.522,3.233-0.522
			c1.856,0,3.272,0.527,4.249,1.581c0.976,1.054,1.464,2.692,1.464,4.915v8.236h-3.48l-0.29-1.479h-0.116
			c-0.619,0.541-1.267,0.981-1.943,1.319C223.007,324.384,222.263,324.553,221.451,324.553z M222.901,321.248
			c0.483,0,0.899-0.106,1.247-0.319c0.348-0.212,0.715-0.512,1.102-0.898v-2.523c-1.508,0.213-2.552,0.522-3.132,0.928
			c-0.58,0.406-0.87,0.89-0.87,1.45c0,0.464,0.149,0.808,0.449,1.03C221.997,321.136,222.398,321.248,222.901,321.248z"/>
		<path fill="#98D8EE" d="M233.108,324.206v-14.384h3.48l0.29,2.522h0.116c0.522-0.985,1.15-1.711,1.885-2.175
			s1.469-0.696,2.204-0.696c0.406,0,0.74,0.024,1,0.073c0.261,0.048,0.498,0.121,0.71,0.217l-0.696,3.684
			c-0.271-0.077-0.522-0.135-0.754-0.174s-0.503-0.059-0.812-0.059c-0.542,0-1.107,0.193-1.697,0.58s-1.078,1.073-1.464,2.06v8.352
			H233.108z"/>
		<path fill="#98D8EE" d="M246.768,307.705c-0.715,0-1.305-0.208-1.769-0.623c-0.464-0.416-0.696-0.952-0.696-1.61
			c0-0.656,0.232-1.188,0.696-1.595s1.054-0.609,1.769-0.609c0.734,0,1.329,0.203,1.784,0.609c0.454,0.406,0.681,0.938,0.681,1.595
			c0,0.658-0.227,1.194-0.681,1.61C248.097,307.497,247.502,307.705,246.768,307.705z M244.65,324.206v-14.384h4.263v14.384H244.65z
			"/>
		<path fill="#98D8EE" d="M252.654,324.206v-14.384h3.48l0.29,1.827h0.116c0.619-0.58,1.295-1.088,2.03-1.522
			c0.735-0.436,1.595-0.653,2.581-0.653c1.566,0,2.702,0.513,3.408,1.537c0.706,1.025,1.059,2.446,1.059,4.264v8.932h-4.263v-8.381
			c0-1.044-0.141-1.759-0.42-2.146c-0.281-0.386-0.73-0.58-1.349-0.58c-0.542,0-1.005,0.121-1.392,0.363
			c-0.387,0.241-0.812,0.585-1.276,1.029v9.715H252.654z"/>
		<path fill="#98D8EE" d="M274.375,330.325c-0.851,0-1.639-0.072-2.364-0.218c-0.725-0.145-1.363-0.362-1.914-0.652
			c-0.551-0.29-0.982-0.667-1.291-1.131c-0.31-0.464-0.464-1.016-0.464-1.653c0-1.16,0.686-2.127,2.059-2.899v-0.116
			c-0.387-0.251-0.706-0.57-0.957-0.957c-0.251-0.387-0.377-0.88-0.377-1.479c0-0.521,0.155-1.02,0.464-1.493
			s0.696-0.875,1.16-1.203v-0.116c-0.503-0.349-0.953-0.846-1.349-1.494c-0.396-0.647-0.594-1.396-0.594-2.247
			c0-0.87,0.164-1.629,0.493-2.276s0.769-1.189,1.32-1.624c0.551-0.436,1.184-0.759,1.899-0.972
			c0.715-0.213,1.459-0.319,2.233-0.319c0.851,0,1.595,0.116,2.233,0.349h5.249v3.103h-2.291c0.135,0.213,0.247,0.483,0.333,0.812
			c0.087,0.329,0.131,0.687,0.131,1.072c0,0.832-0.145,1.552-0.435,2.161c-0.29,0.608-0.691,1.112-1.204,1.508
			c-0.513,0.396-1.112,0.691-1.798,0.885c-0.687,0.193-1.426,0.29-2.219,0.29c-0.561,0-1.141-0.097-1.74-0.29
			c-0.194,0.154-0.329,0.31-0.406,0.464c-0.078,0.155-0.116,0.357-0.116,0.609c0,0.367,0.159,0.638,0.479,0.812
			c0.319,0.174,0.884,0.261,1.696,0.261h2.32c1.779,0,3.137,0.286,4.075,0.855c0.938,0.57,1.406,1.504,1.406,2.799
			c0,0.754-0.188,1.445-0.565,2.073s-0.914,1.17-1.609,1.624s-1.537,0.812-2.523,1.073S275.612,330.325,274.375,330.325z
			 M275.042,327.657c0.966,0,1.759-0.17,2.378-0.508c0.619-0.338,0.928-0.759,0.928-1.262c0-0.444-0.188-0.744-0.566-0.898
			c-0.377-0.155-0.923-0.232-1.638-0.232h-1.479c-0.503,0-0.909-0.015-1.218-0.043c-0.31-0.029-0.58-0.073-0.812-0.131
			c-0.522,0.464-0.783,0.938-0.783,1.421c0,0.541,0.29,0.952,0.87,1.232C273.302,327.516,274.075,327.657,275.042,327.657z
			 M274.694,317.072c0.561,0,1.03-0.198,1.407-0.595s0.565-1,0.565-1.812c0-0.754-0.188-1.329-0.565-1.726
			c-0.377-0.396-0.846-0.595-1.407-0.595c-0.561,0-1.029,0.193-1.406,0.58c-0.377,0.388-0.565,0.967-0.565,1.74
			c0,0.812,0.188,1.416,0.565,1.812S274.133,317.072,274.694,317.072z"/>
		<path fill="#98D8EE" d="M25.065,359.005v-14.384h3.48l0.29,1.855h0.116c0.599-0.599,1.237-1.116,1.914-1.551
			c0.676-0.436,1.488-0.653,2.436-0.653c1.024,0,1.851,0.208,2.479,0.624c0.628,0.416,1.126,1.011,1.494,1.783
			c0.638-0.657,1.309-1.223,2.015-1.696c0.706-0.474,1.542-0.711,2.509-0.711c1.546,0,2.682,0.518,3.407,1.552
			s1.087,2.45,1.087,4.249v8.932H42.03v-8.381c0-1.044-0.141-1.759-0.42-2.146c-0.281-0.386-0.73-0.58-1.349-0.58
			c-0.715,0-1.537,0.465-2.465,1.393v9.715h-4.263v-8.381c0-1.044-0.141-1.759-0.42-2.146c-0.281-0.386-0.73-0.58-1.349-0.58
			c-0.735,0-1.547,0.465-2.436,1.393v9.715H25.065z"/>
		<path fill="#98D8EE" d="M52.035,342.504c-0.715,0-1.305-0.208-1.769-0.623c-0.464-0.416-0.696-0.952-0.696-1.61
			c0-0.656,0.232-1.188,0.696-1.595s1.054-0.609,1.769-0.609c0.734,0,1.329,0.203,1.784,0.609c0.454,0.406,0.681,0.938,0.681,1.595
			c0,0.658-0.227,1.194-0.681,1.61C53.364,342.296,52.77,342.504,52.035,342.504z M49.918,359.005v-14.384h4.263v14.384H49.918z"/>
		<path fill="#98D8EE" d="M57.921,359.005v-14.384h3.48l0.29,1.827h0.116c0.619-0.58,1.295-1.088,2.03-1.522
			c0.735-0.436,1.595-0.653,2.581-0.653c1.566,0,2.702,0.513,3.408,1.537c0.706,1.025,1.059,2.446,1.059,4.264v8.932h-4.263v-8.381
			c0-1.044-0.141-1.759-0.42-2.146c-0.281-0.386-0.73-0.58-1.349-0.58c-0.542,0-1.005,0.121-1.392,0.363
			c-0.387,0.241-0.812,0.585-1.276,1.029v9.715H57.921z"/>
		<path fill="#98D8EE" d="M80.948,359.353c-1.025,0-1.982-0.169-2.871-0.507c-0.89-0.338-1.663-0.831-2.32-1.479
			c-0.657-0.647-1.17-1.436-1.537-2.363c-0.368-0.928-0.551-1.991-0.551-3.19c0-1.159,0.193-2.208,0.58-3.146
			c0.387-0.938,0.894-1.729,1.522-2.378c0.628-0.647,1.349-1.146,2.161-1.493s1.653-0.522,2.523-0.522
			c1.024,0,1.918,0.175,2.683,0.522c0.763,0.348,1.401,0.831,1.914,1.45s0.894,1.349,1.146,2.189s0.377,1.754,0.377,2.74
			c0,0.387-0.02,0.754-0.058,1.103c-0.039,0.348-0.078,0.608-0.116,0.782h-8.613c0.193,1.044,0.624,1.812,1.291,2.306
			s1.483,0.739,2.45,0.739c1.025,0,2.059-0.318,3.103-0.957l1.421,2.581c-0.735,0.503-1.551,0.899-2.45,1.189
			S81.817,359.353,80.948,359.353z M77.757,350.248h5.191c0-0.812-0.184-1.469-0.551-1.973c-0.368-0.502-0.986-0.754-1.856-0.754
			c-0.677,0-1.271,0.223-1.784,0.667C78.246,348.633,77.912,349.32,77.757,350.248z"/>
		<path fill="#98D8EE" d="M89.531,359.005v-14.384h3.48l0.29,2.522h0.116c0.522-0.985,1.15-1.711,1.885-2.175
			s1.469-0.696,2.204-0.696c0.406,0,0.74,0.024,1,0.073c0.261,0.048,0.498,0.121,0.71,0.217l-0.696,3.684
			c-0.271-0.077-0.522-0.135-0.754-0.174s-0.503-0.059-0.812-0.059c-0.542,0-1.107,0.193-1.697,0.58s-1.078,1.073-1.464,2.06v8.352
			H89.531z"/>
		<path fill="#98D8EE" d="M103.886,359.353c-0.657,0-1.252-0.111-1.783-0.333c-0.532-0.223-0.981-0.531-1.349-0.928
			s-0.652-0.855-0.855-1.378s-0.305-1.092-0.305-1.711c0-1.508,0.638-2.688,1.914-3.538c1.276-0.851,3.335-1.421,6.177-1.711
			c-0.039-0.638-0.228-1.146-0.565-1.522c-0.339-0.377-0.904-0.565-1.697-0.565c-0.619,0-1.232,0.116-1.841,0.348
			c-0.609,0.232-1.262,0.551-1.958,0.957l-1.537-2.812c0.928-0.561,1.899-1.016,2.915-1.363s2.093-0.522,3.233-0.522
			c1.856,0,3.272,0.527,4.249,1.581c0.976,1.054,1.464,2.692,1.464,4.915v8.236h-3.48l-0.29-1.479h-0.116
			c-0.619,0.541-1.267,0.981-1.943,1.319C105.442,359.184,104.698,359.353,103.886,359.353z M105.336,356.047
			c0.483,0,0.899-0.106,1.247-0.319c0.348-0.212,0.715-0.512,1.102-0.898v-2.523c-1.508,0.213-2.552,0.522-3.132,0.928
			c-0.58,0.406-0.87,0.89-0.87,1.45c0,0.464,0.149,0.808,0.449,1.03C104.432,355.936,104.833,356.047,105.336,356.047z"/>
		<path fill="#98D8EE" d="M119.458,359.353c-0.735,0-1.354-0.115-1.856-0.348c-0.503-0.232-0.904-0.556-1.203-0.972
			c-0.3-0.415-0.518-0.918-0.653-1.508s-0.203-1.252-0.203-1.986v-15.863h4.263v16.037c0,0.445,0.082,0.754,0.247,0.928
			c0.164,0.174,0.333,0.262,0.507,0.262c0.097,0,0.179,0,0.247,0c0.067,0,0.16-0.02,0.275-0.059l0.522,3.161
			c-0.232,0.097-0.527,0.179-0.884,0.246C120.362,359.32,119.942,359.353,119.458,359.353z"/>
		<path fill="#98D8EE" d="M128.072,359.353c-0.948,0-1.919-0.184-2.915-0.551c-0.996-0.367-1.861-0.851-2.596-1.45l1.914-2.668
			c0.657,0.503,1.286,0.88,1.885,1.131c0.599,0.252,1.208,0.377,1.827,0.377c0.638,0,1.102-0.105,1.392-0.318
			s0.435-0.512,0.435-0.899c0-0.231-0.083-0.439-0.247-0.623c-0.165-0.184-0.387-0.353-0.667-0.508
			c-0.28-0.154-0.594-0.294-0.942-0.42s-0.706-0.266-1.073-0.421c-0.445-0.174-0.889-0.377-1.334-0.609
			c-0.445-0.231-0.851-0.517-1.218-0.855c-0.368-0.338-0.667-0.734-0.899-1.188s-0.348-0.981-0.348-1.581
			c0-0.656,0.13-1.266,0.392-1.827c0.261-0.561,0.633-1.033,1.116-1.421c0.483-0.386,1.063-0.69,1.74-0.913
			c0.676-0.222,1.431-0.334,2.262-0.334c1.102,0,2.068,0.188,2.9,0.566c0.831,0.377,1.556,0.797,2.175,1.261l-1.914,2.553
			c-0.522-0.387-1.034-0.687-1.537-0.899s-1.005-0.319-1.508-0.319c-1.083,0-1.624,0.377-1.624,1.131
			c0,0.232,0.077,0.431,0.232,0.595c0.155,0.165,0.363,0.314,0.624,0.449c0.261,0.136,0.561,0.267,0.899,0.392
			c0.338,0.126,0.691,0.257,1.059,0.392c0.464,0.174,0.923,0.373,1.377,0.595c0.454,0.223,0.87,0.498,1.247,0.826
			c0.377,0.329,0.682,0.73,0.914,1.204s0.348,1.039,0.348,1.696s-0.126,1.267-0.377,1.827c-0.251,0.561-0.629,1.049-1.131,1.464
			c-0.503,0.416-1.122,0.745-1.856,0.986C129.889,359.232,129.038,359.353,128.072,359.353z"/>
		<path fill="#98D8EE" d="M145.79,359.005l-4.843-14.384h4.292l1.856,6.786c0.193,0.715,0.381,1.445,0.565,2.189
			c0.184,0.744,0.372,1.493,0.565,2.247h0.116c0.174-0.754,0.353-1.503,0.536-2.247s0.372-1.475,0.566-2.189l1.885-6.786h4.089
			l-4.698,14.384H145.79z"/>
		<path fill="#98D8EE" d="M163.857,359.353c-1.025,0-1.982-0.169-2.871-0.507c-0.89-0.338-1.663-0.831-2.32-1.479
			c-0.657-0.647-1.17-1.436-1.537-2.363c-0.368-0.928-0.551-1.991-0.551-3.19c0-1.159,0.193-2.208,0.58-3.146
			c0.387-0.938,0.894-1.729,1.522-2.378c0.628-0.647,1.349-1.146,2.161-1.493s1.653-0.522,2.523-0.522
			c1.024,0,1.918,0.175,2.683,0.522c0.763,0.348,1.401,0.831,1.914,1.45s0.894,1.349,1.146,2.189s0.377,1.754,0.377,2.74
			c0,0.387-0.02,0.754-0.058,1.103c-0.039,0.348-0.078,0.608-0.116,0.782h-8.613c0.193,1.044,0.624,1.812,1.291,2.306
			s1.483,0.739,2.45,0.739c1.025,0,2.059-0.318,3.103-0.957l1.421,2.581c-0.735,0.503-1.551,0.899-2.45,1.189
			S164.727,359.353,163.857,359.353z M160.667,350.248h5.191c0-0.812-0.184-1.469-0.551-1.973c-0.368-0.502-0.986-0.754-1.856-0.754
			c-0.677,0-1.271,0.223-1.784,0.667C161.155,348.633,160.822,349.32,160.667,350.248z"/>
		<path fill="#98D8EE" d="M172.441,359.005v-14.384h3.48l0.29,2.522h0.116c0.522-0.985,1.15-1.711,1.885-2.175
			s1.469-0.696,2.204-0.696c0.406,0,0.74,0.024,1,0.073c0.261,0.048,0.498,0.121,0.71,0.217l-0.696,3.684
			c-0.271-0.077-0.522-0.135-0.754-0.174s-0.503-0.059-0.812-0.059c-0.542,0-1.107,0.193-1.697,0.58s-1.078,1.073-1.464,2.06v8.352
			H172.441z"/>
		<path fill="#98D8EE" d="M186.1,342.504c-0.715,0-1.305-0.208-1.769-0.623c-0.464-0.416-0.696-0.952-0.696-1.61
			c0-0.656,0.232-1.188,0.696-1.595s1.054-0.609,1.769-0.609c0.734,0,1.329,0.203,1.784,0.609c0.454,0.406,0.681,0.938,0.681,1.595
			c0,0.658-0.227,1.194-0.681,1.61C187.429,342.296,186.834,342.504,186.1,342.504z M183.982,359.005v-14.384h4.263v14.384H183.982z
			"/>
		<path fill="#98D8EE" d="M192.711,359.005v-11.049h-1.914v-3.161l1.914-0.146v-0.782c0-0.754,0.092-1.47,0.276-2.146
			c0.183-0.677,0.488-1.266,0.913-1.769s0.976-0.899,1.653-1.189c0.676-0.29,1.498-0.435,2.465-0.435
			c0.599,0,1.146,0.058,1.639,0.174c0.493,0.116,0.903,0.231,1.232,0.348l-0.783,3.132c-0.542-0.192-1.034-0.29-1.479-0.29
			c-0.522,0-0.928,0.16-1.218,0.479c-0.29,0.319-0.435,0.847-0.435,1.581v0.87h2.581v3.335h-2.581v11.049H192.711z"/>
		<path fill="#98D8EE" d="M203.992,342.504c-0.715,0-1.305-0.208-1.769-0.623c-0.464-0.416-0.696-0.952-0.696-1.61
			c0-0.656,0.232-1.188,0.696-1.595s1.054-0.609,1.769-0.609c0.734,0,1.329,0.203,1.784,0.609c0.454,0.406,0.681,0.938,0.681,1.595
			c0,0.658-0.227,1.194-0.681,1.61C205.321,342.296,204.727,342.504,203.992,342.504z M201.875,359.005v-14.384h4.263v14.384
			H201.875z"/>
		<path fill="#98D8EE" d="M216.317,359.353c-1.025,0-1.982-0.169-2.871-0.507c-0.89-0.338-1.663-0.831-2.32-1.479
			c-0.657-0.647-1.17-1.436-1.537-2.363c-0.368-0.928-0.551-1.991-0.551-3.19c0-1.159,0.193-2.208,0.58-3.146
			c0.387-0.938,0.894-1.729,1.522-2.378c0.628-0.647,1.349-1.146,2.161-1.493s1.653-0.522,2.523-0.522
			c1.024,0,1.918,0.175,2.683,0.522c0.763,0.348,1.401,0.831,1.914,1.45s0.894,1.349,1.146,2.189s0.377,1.754,0.377,2.74
			c0,0.387-0.02,0.754-0.058,1.103c-0.039,0.348-0.078,0.608-0.116,0.782h-8.613c0.193,1.044,0.624,1.812,1.291,2.306
			s1.483,0.739,2.45,0.739c1.025,0,2.059-0.318,3.103-0.957l1.421,2.581c-0.735,0.503-1.551,0.899-2.45,1.189
			S217.187,359.353,216.317,359.353z M213.126,350.248h5.191c0-0.812-0.184-1.469-0.551-1.973c-0.368-0.502-0.986-0.754-1.856-0.754
			c-0.677,0-1.271,0.223-1.784,0.667C213.615,348.633,213.281,349.32,213.126,350.248z"/>
		<path fill="#98D8EE" d="M230.033,359.353c-0.89,0-1.697-0.174-2.421-0.521c-0.725-0.349-1.344-0.846-1.856-1.494
			c-0.513-0.647-0.909-1.435-1.189-2.363c-0.28-0.928-0.42-1.981-0.42-3.161c0-1.179,0.169-2.232,0.508-3.16
			c0.338-0.929,0.783-1.716,1.334-2.364c0.551-0.647,1.189-1.146,1.914-1.493c0.725-0.348,1.464-0.522,2.218-0.522
			c0.812,0,1.479,0.136,2.001,0.406c0.522,0.271,1.034,0.638,1.537,1.103l-0.174-2.204v-4.901h4.263v20.329h-3.48l-0.29-1.421
			h-0.116c-0.503,0.503-1.093,0.924-1.769,1.262C231.415,359.184,230.729,359.353,230.033,359.353z M231.135,355.874
			c0.464,0,0.884-0.097,1.261-0.29s0.74-0.531,1.088-1.015v-5.888c-0.387-0.348-0.783-0.589-1.189-0.725
			c-0.406-0.135-0.802-0.203-1.189-0.203c-0.677,0-1.276,0.324-1.798,0.972s-0.783,1.658-0.783,3.03
			c0,1.431,0.227,2.475,0.682,3.132C229.661,355.544,230.304,355.874,231.135,355.874z"/>
	</g>
	<g>
		<path fill="#98D8EE" d="M382.006,324.206l5.916-18.908h5.133l5.916,18.908h-4.524l-1.16-4.495h-5.771l-1.16,4.495H382.006z
			 M388.85,314.635l-0.464,1.74h4.031l-0.435-1.74c-0.271-0.946-0.532-1.952-0.783-3.016c-0.251-1.063-0.503-2.088-0.754-3.074
			h-0.116c-0.232,1.006-0.469,2.035-0.71,3.089C389.376,312.688,389.121,313.689,388.85,314.635z"/>
		<path fill="#98D8EE" d="M405.003,324.553c-1.566,0-2.702-0.512-3.408-1.537c-0.706-1.024-1.058-2.445-1.058-4.263v-8.932h4.263
			v8.381c0,1.044,0.145,1.76,0.435,2.146c0.29,0.388,0.744,0.58,1.363,0.58c0.541,0,0.996-0.125,1.363-0.377
			c0.367-0.251,0.764-0.656,1.189-1.218v-9.512h4.263v14.384h-3.48l-0.319-2.001h-0.087c-0.619,0.735-1.281,1.31-1.986,1.726
			C406.835,324.345,405.989,324.553,405.003,324.553z"/>
		<path fill="#98D8EE" d="M422.693,324.553c-0.889,0-1.648-0.135-2.276-0.405c-0.628-0.271-1.141-0.647-1.537-1.132
			c-0.396-0.482-0.687-1.067-0.87-1.754c-0.184-0.687-0.276-1.445-0.276-2.276v-5.829h-1.972v-3.161l2.204-0.174l0.493-3.828h3.538
			v3.828h3.451v3.335h-3.451v5.771c0,0.812,0.169,1.397,0.507,1.755s0.788,0.536,1.349,0.536c0.232,0,0.469-0.028,0.71-0.087
			c0.242-0.058,0.459-0.125,0.652-0.203l0.667,3.104c-0.387,0.116-0.841,0.231-1.363,0.348S423.389,324.553,422.693,324.553z"/>
		<path fill="#98D8EE" d="M428.261,324.206v-20.329h4.263v4.988l-0.203,2.581c0.541-0.483,1.17-0.933,1.885-1.349
			c0.715-0.416,1.566-0.624,2.552-0.624c1.566,0,2.702,0.513,3.408,1.537c0.706,1.025,1.059,2.446,1.059,4.264v8.932h-4.263v-8.381
			c0-1.044-0.141-1.759-0.42-2.146c-0.281-0.386-0.73-0.58-1.349-0.58c-0.542,0-1.005,0.121-1.392,0.363
			c-0.387,0.241-0.812,0.585-1.276,1.029v9.715H428.261z"/>
		<path fill="#98D8EE" d="M450.997,324.553c-0.909,0-1.789-0.169-2.639-0.507s-1.6-0.827-2.248-1.465s-1.165-1.426-1.551-2.363
			c-0.387-0.938-0.58-2.006-0.58-3.205c0-1.198,0.193-2.267,0.58-3.204c0.387-0.938,0.903-1.726,1.551-2.363
			c0.648-0.639,1.397-1.126,2.248-1.465c0.851-0.338,1.73-0.508,2.639-0.508c0.909,0,1.784,0.17,2.625,0.508
			c0.841,0.339,1.585,0.826,2.233,1.465c0.647,0.638,1.165,1.426,1.552,2.363c0.386,0.938,0.58,2.006,0.58,3.204
			c0,1.199-0.193,2.268-0.58,3.205c-0.387,0.938-0.904,1.726-1.552,2.363c-0.648,0.638-1.392,1.127-2.233,1.465
			S451.905,324.553,450.997,324.553z M450.997,321.103c0.87,0,1.527-0.367,1.972-1.103c0.444-0.734,0.667-1.729,0.667-2.987
			c0-1.256-0.223-2.252-0.667-2.986c-0.445-0.734-1.102-1.103-1.972-1.103c-0.89,0-1.551,0.368-1.986,1.103s-0.653,1.73-0.653,2.986
			c0,1.258,0.218,2.253,0.653,2.987C449.445,320.736,450.107,321.103,450.997,321.103z"/>
		<path fill="#98D8EE" d="M460.915,324.206v-14.384h3.48l0.29,2.522h0.116c0.522-0.985,1.15-1.711,1.885-2.175
			s1.469-0.696,2.204-0.696c0.406,0,0.74,0.024,1,0.073c0.261,0.048,0.498,0.121,0.71,0.217l-0.696,3.684
			c-0.271-0.077-0.522-0.135-0.754-0.174s-0.503-0.059-0.812-0.059c-0.542,0-1.107,0.193-1.697,0.58s-1.078,1.073-1.464,2.06v8.352
			H460.915z"/>
		<path fill="#98D8EE" d="M476.458,324.553c-0.948,0-1.919-0.184-2.915-0.551c-0.996-0.367-1.861-0.851-2.596-1.45l1.914-2.668
			c0.657,0.503,1.286,0.88,1.885,1.131c0.599,0.252,1.208,0.377,1.827,0.377c0.638,0,1.102-0.105,1.392-0.318
			s0.435-0.512,0.435-0.899c0-0.231-0.083-0.439-0.247-0.623c-0.165-0.184-0.387-0.353-0.667-0.508
			c-0.28-0.154-0.594-0.294-0.942-0.42s-0.706-0.266-1.073-0.421c-0.445-0.174-0.889-0.377-1.334-0.609
			c-0.445-0.231-0.851-0.517-1.218-0.855c-0.368-0.338-0.667-0.734-0.899-1.188s-0.348-0.981-0.348-1.581
			c0-0.656,0.13-1.266,0.392-1.827c0.261-0.561,0.633-1.033,1.116-1.421c0.483-0.386,1.063-0.69,1.74-0.913
			c0.676-0.222,1.431-0.334,2.262-0.334c1.102,0,2.068,0.188,2.9,0.566c0.831,0.377,1.556,0.797,2.175,1.261l-1.914,2.553
			c-0.522-0.387-1.034-0.687-1.537-0.899s-1.005-0.319-1.508-0.319c-1.083,0-1.624,0.377-1.624,1.131
			c0,0.232,0.077,0.431,0.232,0.595c0.155,0.165,0.363,0.314,0.624,0.449c0.261,0.136,0.561,0.267,0.899,0.392
			c0.338,0.126,0.691,0.257,1.059,0.392c0.464,0.174,0.923,0.373,1.377,0.595c0.454,0.223,0.87,0.498,1.247,0.826
			c0.377,0.329,0.682,0.73,0.914,1.204s0.348,1.039,0.348,1.696s-0.126,1.267-0.377,1.827c-0.251,0.561-0.629,1.049-1.131,1.464
			c-0.503,0.416-1.122,0.745-1.856,0.986C478.275,324.432,477.425,324.553,476.458,324.553z"/>
		<path fill="#98D8EE" d="M494.496,324.553c-0.657,0-1.252-0.111-1.783-0.333c-0.532-0.223-0.981-0.531-1.349-0.928
			s-0.652-0.855-0.855-1.378s-0.305-1.092-0.305-1.711c0-1.508,0.638-2.688,1.914-3.538c1.276-0.851,3.335-1.421,6.177-1.711
			c-0.039-0.638-0.228-1.146-0.565-1.522c-0.339-0.377-0.904-0.565-1.697-0.565c-0.619,0-1.232,0.116-1.841,0.348
			c-0.609,0.232-1.262,0.551-1.958,0.957l-1.537-2.812c0.928-0.561,1.899-1.016,2.915-1.363s2.093-0.522,3.233-0.522
			c1.856,0,3.272,0.527,4.249,1.581c0.976,1.054,1.464,2.692,1.464,4.915v8.236h-3.48l-0.29-1.479h-0.116
			c-0.619,0.541-1.267,0.981-1.943,1.319C496.052,324.384,495.308,324.553,494.496,324.553z M495.946,321.248
			c0.483,0,0.899-0.106,1.247-0.319c0.348-0.212,0.715-0.512,1.102-0.898v-2.523c-1.508,0.213-2.552,0.522-3.132,0.928
			c-0.58,0.406-0.87,0.89-0.87,1.45c0,0.464,0.149,0.808,0.449,1.03C495.042,321.136,495.443,321.248,495.946,321.248z"/>
		<path fill="#98D8EE" d="M506.154,324.206v-14.384h3.48l0.29,1.827h0.116c0.619-0.58,1.295-1.088,2.03-1.522
			c0.735-0.436,1.595-0.653,2.581-0.653c1.566,0,2.702,0.513,3.408,1.537c0.706,1.025,1.059,2.446,1.059,4.264v8.932h-4.263v-8.381
			c0-1.044-0.141-1.759-0.42-2.146c-0.281-0.386-0.73-0.58-1.349-0.58c-0.542,0-1.005,0.121-1.392,0.363
			c-0.387,0.241-0.812,0.585-1.276,1.029v9.715H506.154z"/>
		<path fill="#98D8EE" d="M527.875,324.553c-0.89,0-1.697-0.174-2.421-0.521c-0.725-0.349-1.344-0.846-1.856-1.494
			c-0.513-0.647-0.909-1.435-1.189-2.363c-0.28-0.928-0.42-1.981-0.42-3.161c0-1.179,0.169-2.232,0.508-3.16
			c0.338-0.929,0.783-1.716,1.334-2.364c0.551-0.647,1.189-1.146,1.914-1.493c0.725-0.348,1.464-0.522,2.218-0.522
			c0.812,0,1.479,0.136,2.001,0.406c0.522,0.271,1.034,0.638,1.537,1.103l-0.174-2.204v-4.901h4.263v20.329h-3.48l-0.29-1.421
			h-0.116c-0.503,0.503-1.093,0.924-1.769,1.262C529.257,324.384,528.571,324.553,527.875,324.553z M528.977,321.074
			c0.464,0,0.884-0.097,1.261-0.29s0.74-0.531,1.088-1.015v-5.888c-0.387-0.348-0.783-0.589-1.189-0.725
			c-0.406-0.135-0.802-0.203-1.189-0.203c-0.677,0-1.276,0.324-1.798,0.972s-0.783,1.658-0.783,3.03
			c0,1.431,0.227,2.475,0.682,3.132C527.502,320.745,528.146,321.074,528.977,321.074z"/>
		<path fill="#98D8EE" d="M551.422,324.553c-1.005,0-1.938-0.169-2.798-0.507c-0.86-0.338-1.609-0.827-2.248-1.465
			s-1.141-1.426-1.508-2.363c-0.368-0.938-0.551-2.006-0.551-3.205c0-1.198,0.203-2.267,0.609-3.204
			c0.406-0.938,0.952-1.726,1.639-2.363c0.686-0.639,1.483-1.126,2.393-1.465c0.908-0.338,1.856-0.508,2.842-0.508
			c0.889,0,1.677,0.146,2.364,0.436c0.686,0.29,1.3,0.657,1.841,1.102l-2.001,2.755c-0.677-0.561-1.325-0.841-1.943-0.841
			c-1.044,0-1.866,0.368-2.465,1.103s-0.899,1.73-0.899,2.986c0,1.258,0.305,2.253,0.914,2.987c0.609,0.735,1.377,1.103,2.306,1.103
			c0.464,0,0.914-0.102,1.349-0.305c0.435-0.203,0.845-0.45,1.232-0.74l1.682,2.784c-0.715,0.619-1.489,1.059-2.32,1.319
			C553.027,324.423,552.215,324.553,551.422,324.553z"/>
		<path fill="#98D8EE" d="M564.066,324.553c-0.909,0-1.789-0.169-2.639-0.507c-0.852-0.338-1.6-0.827-2.248-1.465
			c-0.648-0.638-1.165-1.426-1.551-2.363c-0.387-0.938-0.58-2.006-0.58-3.205c0-1.198,0.193-2.267,0.58-3.204
			c0.387-0.938,0.903-1.726,1.551-2.363c0.648-0.639,1.396-1.126,2.248-1.465c0.85-0.338,1.729-0.508,2.639-0.508
			c0.908,0,1.783,0.17,2.625,0.508c0.84,0.339,1.584,0.826,2.232,1.465c0.647,0.638,1.164,1.426,1.552,2.363
			c0.386,0.938,0.579,2.006,0.579,3.204c0,1.199-0.193,2.268-0.579,3.205c-0.388,0.938-0.904,1.726-1.552,2.363
			c-0.648,0.638-1.393,1.127-2.232,1.465C565.85,324.384,564.975,324.553,564.066,324.553z M564.066,321.103
			c0.87,0,1.527-0.367,1.973-1.103c0.443-0.734,0.666-1.729,0.666-2.987c0-1.256-0.223-2.252-0.666-2.986
			c-0.445-0.734-1.103-1.103-1.973-1.103c-0.89,0-1.551,0.368-1.986,1.103s-0.652,1.73-0.652,2.986c0,1.258,0.217,2.253,0.652,2.987
			C562.516,320.736,563.177,321.103,564.066,321.103z"/>
		<path fill="#98D8EE" d="M573.346,318.376v-3.016h7.135v3.016H573.346z"/>
		<path fill="#98D8EE" d="M587.236,324.553c-0.656,0-1.252-0.111-1.783-0.333c-0.531-0.223-0.98-0.531-1.348-0.928
			s-0.652-0.855-0.855-1.378s-0.305-1.092-0.305-1.711c0-1.508,0.638-2.688,1.914-3.538c1.275-0.851,3.334-1.421,6.177-1.711
			c-0.039-0.638-0.228-1.146-0.565-1.522c-0.339-0.377-0.904-0.565-1.697-0.565c-0.618,0-1.232,0.116-1.841,0.348
			c-0.608,0.232-1.262,0.551-1.958,0.957l-1.537-2.812c0.929-0.561,1.9-1.016,2.915-1.363s2.093-0.522,3.233-0.522
			c1.855,0,3.271,0.527,4.248,1.581s1.465,2.692,1.465,4.915v8.236h-3.48l-0.289-1.479h-0.116c-0.619,0.541-1.267,0.981-1.942,1.319
			C588.793,324.384,588.049,324.553,587.236,324.553z M588.688,321.248c0.482,0,0.898-0.106,1.246-0.319
			c0.349-0.212,0.715-0.512,1.103-0.898v-2.523c-1.509,0.213-2.552,0.522-3.132,0.928c-0.58,0.406-0.87,0.89-0.87,1.45
			c0,0.464,0.149,0.808,0.449,1.03C587.783,321.136,588.184,321.248,588.688,321.248z"/>
		<path fill="#98D8EE" d="M603.216,324.553c-1.565,0-2.702-0.512-3.407-1.537c-0.706-1.024-1.059-2.445-1.059-4.263v-8.932h4.263
			v8.381c0,1.044,0.146,1.76,0.435,2.146c0.291,0.388,0.744,0.58,1.363,0.58c0.541,0,0.996-0.125,1.363-0.377
			c0.367-0.251,0.764-0.656,1.189-1.218v-9.512h4.263v14.384h-3.479l-0.32-2.001h-0.086c-0.619,0.735-1.281,1.31-1.986,1.726
			C605.047,324.345,604.201,324.553,603.216,324.553z"/>
		<path fill="#98D8EE" d="M620.905,324.553c-0.89,0-1.648-0.135-2.276-0.405c-0.629-0.271-1.141-0.647-1.537-1.132
			c-0.396-0.482-0.687-1.067-0.869-1.754c-0.185-0.687-0.276-1.445-0.276-2.276v-5.829h-1.972v-3.161l2.203-0.174l0.494-3.828h3.537
			v3.828h3.451v3.335h-3.451v5.771c0,0.812,0.17,1.397,0.508,1.755s0.787,0.536,1.349,0.536c0.231,0,0.469-0.028,0.71-0.087
			c0.242-0.058,0.459-0.125,0.652-0.203l0.668,3.104c-0.387,0.116-0.842,0.231-1.363,0.348S621.602,324.553,620.905,324.553z"/>
		<path fill="#98D8EE" d="M626.473,324.206v-20.329h4.264v4.988l-0.203,2.581c0.541-0.483,1.17-0.933,1.885-1.349
			s1.566-0.624,2.553-0.624c1.566,0,2.701,0.513,3.407,1.537c0.706,1.025,1.059,2.446,1.059,4.264v8.932h-4.263v-8.381
			c0-1.044-0.141-1.759-0.421-2.146c-0.28-0.386-0.729-0.58-1.349-0.58c-0.541,0-1.006,0.121-1.393,0.363
			c-0.387,0.241-0.812,0.585-1.275,1.029v9.715H626.473z"/>
		<path fill="#98D8EE" d="M649.209,324.553c-0.908,0-1.788-0.169-2.639-0.507s-1.6-0.827-2.248-1.465
			c-0.647-0.638-1.164-1.426-1.551-2.363s-0.58-2.006-0.58-3.205c0-1.198,0.193-2.267,0.58-3.204s0.903-1.726,1.551-2.363
			c0.648-0.639,1.397-1.126,2.248-1.465c0.851-0.338,1.73-0.508,2.639-0.508c0.909,0,1.784,0.17,2.625,0.508
			c0.841,0.339,1.585,0.826,2.232,1.465c0.648,0.638,1.165,1.426,1.553,2.363c0.386,0.938,0.579,2.006,0.579,3.204
			c0,1.199-0.193,2.268-0.579,3.205c-0.388,0.938-0.904,1.726-1.553,2.363c-0.647,0.638-1.392,1.127-2.232,1.465
			S650.118,324.553,649.209,324.553z M649.209,321.103c0.871,0,1.527-0.367,1.973-1.103c0.444-0.734,0.667-1.729,0.667-2.987
			c0-1.256-0.223-2.252-0.667-2.986c-0.445-0.734-1.102-1.103-1.973-1.103c-0.889,0-1.551,0.368-1.986,1.103
			c-0.435,0.734-0.652,1.73-0.652,2.986c0,1.258,0.218,2.253,0.652,2.987C647.658,320.736,648.32,321.103,649.209,321.103z"/>
		<path fill="#98D8EE" d="M659.127,324.206v-14.384h3.48l0.289,2.522h0.117c0.521-0.985,1.149-1.711,1.885-2.175
			c0.734-0.464,1.469-0.696,2.203-0.696c0.406,0,0.74,0.024,1.001,0.073c0.261,0.048,0.497,0.121,0.71,0.217l-0.695,3.684
			c-0.271-0.077-0.521-0.135-0.754-0.174s-0.503-0.059-0.812-0.059c-0.541,0-1.106,0.193-1.696,0.58s-1.077,1.073-1.464,2.06v8.352
			H659.127z"/>
		<path fill="#98D8EE" d="M674.672,324.553c-0.948,0-1.92-0.184-2.915-0.551c-0.996-0.367-1.86-0.851-2.596-1.45l1.914-2.668
			c0.657,0.503,1.286,0.88,1.886,1.131c0.598,0.252,1.207,0.377,1.826,0.377c0.639,0,1.102-0.105,1.393-0.318
			c0.289-0.213,0.435-0.512,0.435-0.899c0-0.231-0.083-0.439-0.247-0.623s-0.387-0.353-0.666-0.508
			c-0.281-0.154-0.595-0.294-0.943-0.42c-0.348-0.126-0.705-0.266-1.072-0.421c-0.445-0.174-0.89-0.377-1.334-0.609
			c-0.445-0.231-0.852-0.517-1.219-0.855c-0.367-0.338-0.666-0.734-0.898-1.188s-0.348-0.981-0.348-1.581
			c0-0.656,0.13-1.266,0.391-1.827c0.262-0.561,0.633-1.033,1.117-1.421c0.482-0.386,1.062-0.69,1.74-0.913
			c0.676-0.222,1.43-0.334,2.262-0.334c1.102,0,2.068,0.188,2.9,0.566c0.83,0.377,1.555,0.797,2.174,1.261l-1.914,2.553
			c-0.521-0.387-1.033-0.687-1.537-0.899c-0.502-0.213-1.005-0.319-1.508-0.319c-1.082,0-1.623,0.377-1.623,1.131
			c0,0.232,0.076,0.431,0.231,0.595c0.155,0.165,0.362,0.314,0.624,0.449c0.261,0.136,0.561,0.267,0.898,0.392
			c0.338,0.126,0.691,0.257,1.059,0.392c0.464,0.174,0.923,0.373,1.377,0.595c0.455,0.223,0.871,0.498,1.248,0.826
			c0.377,0.329,0.682,0.73,0.913,1.204s0.349,1.039,0.349,1.696s-0.127,1.267-0.377,1.827c-0.252,0.561-0.629,1.049-1.132,1.464
			c-0.503,0.416-1.122,0.745-1.856,0.986S675.638,324.553,674.672,324.553z"/>
	</g>
	<g>
		<path fill="#98D8EE" d="M839.413,324.206v-18.908h4.263v15.312h7.482v3.596H839.413z"/>
		<path fill="#98D8EE" d="M859.857,324.553c-0.908,0-1.788-0.169-2.639-0.507s-1.6-0.827-2.248-1.465
			c-0.647-0.638-1.164-1.426-1.551-2.363s-0.58-2.006-0.58-3.205c0-1.198,0.193-2.267,0.58-3.204s0.903-1.726,1.551-2.363
			c0.648-0.639,1.397-1.126,2.248-1.465c0.851-0.338,1.73-0.508,2.639-0.508c0.909,0,1.784,0.17,2.625,0.508
			c0.841,0.339,1.585,0.826,2.232,1.465c0.648,0.638,1.165,1.426,1.553,2.363c0.386,0.938,0.579,2.006,0.579,3.204
			c0,1.199-0.193,2.268-0.579,3.205c-0.388,0.938-0.904,1.726-1.553,2.363c-0.647,0.638-1.392,1.127-2.232,1.465
			S860.767,324.553,859.857,324.553z M859.857,321.103c0.871,0,1.527-0.367,1.973-1.103c0.444-0.734,0.667-1.729,0.667-2.987
			c0-1.256-0.223-2.252-0.667-2.986c-0.445-0.734-1.102-1.103-1.973-1.103c-0.889,0-1.551,0.368-1.986,1.103
			c-0.435,0.734-0.652,1.73-0.652,2.986c0,1.258,0.218,2.253,0.652,2.987C858.307,320.736,858.969,321.103,859.857,321.103z"/>
		<path fill="#98D8EE" d="M876.04,324.553c-1.005,0-1.938-0.169-2.798-0.507c-0.861-0.338-1.609-0.827-2.248-1.465
			s-1.141-1.426-1.508-2.363s-0.551-2.006-0.551-3.205c0-1.198,0.203-2.267,0.608-3.204c0.406-0.938,0.952-1.726,1.639-2.363
			c0.687-0.639,1.483-1.126,2.393-1.465c0.908-0.338,1.856-0.508,2.842-0.508c0.89,0,1.677,0.146,2.364,0.436
			c0.686,0.29,1.299,0.657,1.841,1.102l-2.001,2.755c-0.677-0.561-1.324-0.841-1.943-0.841c-1.043,0-1.865,0.368-2.465,1.103
			s-0.898,1.73-0.898,2.986c0,1.258,0.305,2.253,0.913,2.987c0.608,0.735,1.378,1.103,2.306,1.103c0.464,0,0.914-0.102,1.349-0.305
			s0.845-0.45,1.232-0.74l1.682,2.784c-0.716,0.619-1.489,1.059-2.319,1.319C877.645,324.423,876.832,324.553,876.04,324.553z"/>
		<path fill="#98D8EE" d="M886.654,324.553c-0.658,0-1.252-0.111-1.783-0.333c-0.533-0.223-0.982-0.531-1.35-0.928
			s-0.652-0.855-0.855-1.378s-0.305-1.092-0.305-1.711c0-1.508,0.639-2.688,1.914-3.538c1.277-0.851,3.336-1.421,6.178-1.711
			c-0.039-0.638-0.228-1.146-0.565-1.522c-0.339-0.377-0.904-0.565-1.696-0.565c-0.619,0-1.232,0.116-1.842,0.348
			c-0.609,0.232-1.262,0.551-1.957,0.957l-1.537-2.812c0.928-0.561,1.898-1.016,2.914-1.363s2.093-0.522,3.233-0.522
			c1.856,0,3.272,0.527,4.249,1.581c0.976,1.054,1.464,2.692,1.464,4.915v8.236h-3.479l-0.291-1.479h-0.115
			c-0.619,0.541-1.267,0.981-1.943,1.319S887.466,324.553,886.654,324.553z M888.104,321.248c0.483,0,0.899-0.106,1.248-0.319
			c0.348-0.212,0.715-0.512,1.102-0.898v-2.523c-1.508,0.213-2.553,0.522-3.133,0.928c-0.579,0.406-0.869,0.89-0.869,1.45
			c0,0.464,0.149,0.808,0.449,1.03C887.2,321.136,887.602,321.248,888.104,321.248z"/>
		<path fill="#98D8EE" d="M902.227,324.553c-0.734,0-1.354-0.115-1.855-0.348c-0.504-0.232-0.904-0.556-1.203-0.972
			c-0.301-0.415-0.518-0.918-0.653-1.508s-0.203-1.252-0.203-1.986v-15.863h4.263v16.037c0,0.445,0.082,0.754,0.247,0.928
			c0.164,0.174,0.333,0.262,0.507,0.262c0.098,0,0.18,0,0.247,0s0.159-0.02,0.275-0.059l0.522,3.161
			c-0.232,0.097-0.527,0.179-0.885,0.246C903.131,324.52,902.71,324.553,902.227,324.553z"/>
		<path fill="#98D8EE" d="M908.723,307.705c-0.715,0-1.305-0.208-1.77-0.623c-0.463-0.416-0.695-0.952-0.695-1.61
			c0-0.656,0.232-1.188,0.695-1.595c0.465-0.406,1.055-0.609,1.77-0.609c0.734,0,1.329,0.203,1.783,0.609
			c0.455,0.406,0.682,0.938,0.682,1.595c0,0.658-0.227,1.194-0.682,1.61C910.052,307.497,909.457,307.705,908.723,307.705z
			 M906.605,324.206v-14.384h4.264v14.384H906.605z"/>
		<path fill="#98D8EE" d="M920.148,324.553c-0.89,0-1.648-0.135-2.277-0.405c-0.628-0.271-1.141-0.647-1.537-1.132
			c-0.396-0.482-0.686-1.067-0.869-1.754s-0.275-1.445-0.275-2.276v-5.829h-1.973v-3.161l2.204-0.174l0.493-3.828h3.538v3.828h3.451
			v3.335h-3.451v5.771c0,0.812,0.169,1.397,0.507,1.755c0.339,0.357,0.788,0.536,1.35,0.536c0.231,0,0.469-0.028,0.71-0.087
			c0.241-0.058,0.459-0.125,0.652-0.203l0.667,3.104c-0.387,0.116-0.841,0.231-1.363,0.348
			C921.453,324.496,920.844,324.553,920.148,324.553z"/>
		<path fill="#98D8EE" d="M927.833,307.705c-0.716,0-1.306-0.208-1.769-0.623c-0.465-0.416-0.696-0.952-0.696-1.61
			c0-0.656,0.231-1.188,0.696-1.595c0.463-0.406,1.053-0.609,1.769-0.609c0.734,0,1.329,0.203,1.784,0.609
			c0.453,0.406,0.681,0.938,0.681,1.595c0,0.658-0.228,1.194-0.681,1.61C929.162,307.497,928.567,307.705,927.833,307.705z
			 M925.716,324.206v-14.384h4.263v14.384H925.716z"/>
		<path fill="#98D8EE" d="M940.158,324.553c-1.025,0-1.982-0.169-2.871-0.507c-0.891-0.338-1.664-0.831-2.32-1.479
			c-0.658-0.647-1.17-1.436-1.537-2.363s-0.551-1.991-0.551-3.19c0-1.159,0.192-2.208,0.58-3.146
			c0.387-0.938,0.894-1.729,1.521-2.378c0.629-0.647,1.35-1.146,2.161-1.493s1.653-0.522,2.522-0.522
			c1.025,0,1.919,0.175,2.684,0.522c0.763,0.348,1.4,0.831,1.913,1.45s0.894,1.349,1.146,2.189s0.377,1.754,0.377,2.74
			c0,0.387-0.02,0.754-0.058,1.103c-0.039,0.348-0.077,0.608-0.116,0.782h-8.613c0.193,1.044,0.624,1.812,1.291,2.306
			s1.483,0.739,2.45,0.739c1.024,0,2.06-0.318,3.103-0.957l1.422,2.581c-0.735,0.503-1.552,0.899-2.451,1.189
			C941.912,324.409,941.027,324.553,940.158,324.553z M936.967,315.448h5.191c0-0.812-0.184-1.469-0.551-1.973
			c-0.367-0.502-0.986-0.754-1.855-0.754c-0.678,0-1.271,0.223-1.784,0.667C937.455,313.833,937.122,314.52,936.967,315.448z"/>
		<path fill="#98D8EE" d="M952.976,324.553c-0.948,0-1.919-0.184-2.915-0.551s-1.86-0.851-2.596-1.45l1.914-2.668
			c0.658,0.503,1.286,0.88,1.886,1.131c0.599,0.252,1.208,0.377,1.827,0.377c0.638,0,1.102-0.105,1.392-0.318
			s0.435-0.512,0.435-0.899c0-0.231-0.082-0.439-0.246-0.623s-0.387-0.353-0.667-0.508c-0.28-0.154-0.595-0.294-0.942-0.42
			s-0.706-0.266-1.073-0.421c-0.444-0.174-0.89-0.377-1.334-0.609c-0.444-0.231-0.851-0.517-1.218-0.855
			c-0.367-0.338-0.667-0.734-0.898-1.188c-0.232-0.454-0.349-0.981-0.349-1.581c0-0.656,0.13-1.266,0.392-1.827
			c0.261-0.561,0.633-1.033,1.116-1.421c0.483-0.386,1.063-0.69,1.74-0.913c0.677-0.222,1.431-0.334,2.263-0.334
			c1.102,0,2.068,0.188,2.899,0.566c0.831,0.377,1.556,0.797,2.175,1.261l-1.914,2.553c-0.521-0.387-1.034-0.687-1.537-0.899
			s-1.006-0.319-1.508-0.319c-1.083,0-1.624,0.377-1.624,1.131c0,0.232,0.077,0.431,0.231,0.595
			c0.155,0.165,0.363,0.314,0.624,0.449c0.261,0.136,0.561,0.267,0.899,0.392c0.338,0.126,0.691,0.257,1.059,0.392
			c0.463,0.174,0.922,0.373,1.377,0.595c0.454,0.223,0.87,0.498,1.247,0.826c0.377,0.329,0.682,0.73,0.913,1.204
			c0.232,0.474,0.349,1.039,0.349,1.696s-0.126,1.267-0.377,1.827s-0.629,1.049-1.132,1.464c-0.502,0.416-1.121,0.745-1.855,0.986
			S953.941,324.553,952.976,324.553z"/>
	</g>
</g>
<g>
	<g>
		<path fill="#98D8EE" d="M381.275,481.086v-19.111h4.437c1.469,0,2.75,0.223,3.842,0.668s1.996,1.082,2.712,1.914
			c0.715,0.832,1.247,1.826,1.595,2.986s0.522,2.465,0.522,3.916c0,1.449-0.174,2.77-0.522,3.957
			c-0.348,1.189-0.88,2.205-1.595,3.047c-0.716,0.84-1.615,1.488-2.697,1.941c-1.083,0.455-2.359,0.682-3.828,0.682H381.275z
			 M382.609,479.956h2.958c1.295,0,2.412-0.207,3.35-0.623c0.938-0.416,1.706-1,2.305-1.754s1.044-1.648,1.334-2.684
			c0.29-1.033,0.435-2.18,0.435-3.436c0-1.238-0.145-2.369-0.435-3.395c-0.29-1.023-0.735-1.902-1.334-2.639
			c-0.599-0.734-1.368-1.305-2.305-1.711c-0.938-0.406-2.055-0.609-3.35-0.609h-2.958V479.956z"/>
		<path fill="#98D8EE" d="M404.068,481.434c-0.889,0-1.725-0.164-2.508-0.492s-1.464-0.807-2.044-1.436s-1.04-1.393-1.377-2.291
			c-0.338-0.898-0.508-1.918-0.508-3.059s0.169-2.166,0.508-3.074c0.338-0.908,0.792-1.678,1.363-2.307
			c0.57-0.627,1.218-1.111,1.943-1.449c0.725-0.338,1.474-0.508,2.248-0.508c1.663,0,2.968,0.561,3.915,1.682
			s1.421,2.707,1.421,4.756c0,0.174,0,0.348,0,0.523c0,0.174-0.019,0.348-0.058,0.521h-10.034c0.019,0.869,0.154,1.678,0.406,2.422
			c0.251,0.744,0.604,1.381,1.058,1.914c0.454,0.531,1,0.947,1.639,1.246c0.638,0.301,1.353,0.449,2.146,0.449
			c0.754,0,1.436-0.111,2.044-0.334c0.609-0.221,1.174-0.525,1.697-0.912l0.522,0.986c-0.561,0.328-1.175,0.637-1.842,0.928
			C405.939,481.29,405.093,481.434,404.068,481.434z M398.936,473.256h8.874c0-1.797-0.368-3.137-1.102-4.016
			c-0.735-0.879-1.73-1.32-2.987-1.32c-0.6,0-1.17,0.121-1.711,0.363c-0.542,0.242-1.03,0.594-1.465,1.059
			c-0.435,0.463-0.793,1.025-1.073,1.682C399.191,471.682,399.013,472.426,398.936,473.256z"/>
		<path fill="#98D8EE" d="M418.104,481.434c-0.909,0-1.745-0.164-2.509-0.492s-1.431-0.803-2.001-1.422
			c-0.57-0.617-1.015-1.377-1.334-2.275c-0.319-0.898-0.479-1.93-0.479-3.088c0-1.16,0.174-2.199,0.522-3.119
			c0.348-0.918,0.812-1.686,1.392-2.305s1.251-1.092,2.016-1.422c0.764-0.328,1.57-0.492,2.421-0.492
			c0.967,0,1.769,0.174,2.407,0.521c0.638,0.348,1.198,0.744,1.682,1.189l-0.754,0.898c-0.445-0.424-0.938-0.777-1.479-1.059
			c-0.542-0.279-1.15-0.42-1.827-0.42c-0.716,0-1.377,0.15-1.987,0.449c-0.609,0.301-1.141,0.725-1.595,1.277
			c-0.455,0.551-0.812,1.203-1.073,1.957c-0.261,0.754-0.392,1.594-0.392,2.523c0,0.908,0.121,1.738,0.363,2.494
			c0.241,0.754,0.58,1.4,1.015,1.941c0.435,0.543,0.966,0.963,1.595,1.262c0.628,0.301,1.319,0.449,2.074,0.449
			c0.734,0,1.416-0.154,2.044-0.463c0.628-0.309,1.184-0.686,1.667-1.131l0.667,0.898c-0.6,0.521-1.267,0.957-2.001,1.305
			C419.806,481.26,418.994,481.434,418.104,481.434z"/>
		<path fill="#98D8EE" d="M430.893,481.434c-0.889,0-1.725-0.164-2.508-0.492s-1.464-0.807-2.044-1.436s-1.04-1.393-1.377-2.291
			c-0.338-0.898-0.508-1.918-0.508-3.059s0.169-2.166,0.508-3.074c0.338-0.908,0.792-1.678,1.363-2.307
			c0.57-0.627,1.218-1.111,1.943-1.449c0.725-0.338,1.474-0.508,2.248-0.508c1.663,0,2.968,0.561,3.915,1.682
			s1.421,2.707,1.421,4.756c0,0.174,0,0.348,0,0.523c0,0.174-0.019,0.348-0.058,0.521H425.76c0.019,0.869,0.154,1.678,0.406,2.422
			c0.251,0.744,0.604,1.381,1.058,1.914c0.454,0.531,1,0.947,1.639,1.246c0.638,0.301,1.353,0.449,2.146,0.449
			c0.754,0,1.436-0.111,2.044-0.334c0.609-0.221,1.174-0.525,1.697-0.912l0.522,0.986c-0.561,0.328-1.175,0.637-1.842,0.928
			C432.763,481.29,431.917,481.434,430.893,481.434z M425.76,473.256h8.874c0-1.797-0.368-3.137-1.102-4.016
			c-0.735-0.879-1.73-1.32-2.987-1.32c-0.6,0-1.17,0.121-1.711,0.363c-0.542,0.242-1.03,0.594-1.465,1.059
			c-0.435,0.463-0.793,1.025-1.073,1.682C426.016,471.682,425.837,472.426,425.76,473.256z"/>
		<path fill="#98D8EE" d="M439.767,481.086v-13.92h1.102l0.116,2.146h0.087c0.618-0.715,1.31-1.311,2.073-1.783
			c0.764-0.475,1.532-0.711,2.306-0.711c1.121,0,1.981,0.256,2.581,0.77c0.599,0.512,1.024,1.203,1.276,2.072
			c0.812-0.869,1.6-1.561,2.363-2.072c0.764-0.514,1.552-0.77,2.364-0.77c2.784,0,4.176,1.779,4.176,5.336v8.932h-1.305v-8.758
			c0-1.488-0.251-2.586-0.754-3.291c-0.503-0.705-1.286-1.059-2.349-1.059c-1.257,0-2.649,0.869-4.176,2.609v10.498h-1.276v-8.758
			c0-1.488-0.251-2.586-0.754-3.291c-0.503-0.705-1.295-1.059-2.378-1.059c-1.257,0-2.649,0.869-4.176,2.609v10.498H439.767z"/>
		<path fill="#98D8EE" d="M468.912,481.434c-0.677,0-1.377-0.158-2.103-0.479c-0.725-0.318-1.417-0.748-2.074-1.289h-0.058
			l-0.145,1.42h-1.073v-20.85h1.276v6.031l-0.058,2.727c0.715-0.6,1.479-1.111,2.291-1.537c0.812-0.426,1.653-0.639,2.523-0.639
			c1.856,0,3.248,0.643,4.176,1.928c0.928,1.287,1.392,3.012,1.392,5.178c0,1.18-0.165,2.232-0.493,3.16
			c-0.329,0.928-0.778,1.717-1.349,2.363c-0.57,0.648-1.228,1.143-1.972,1.48C470.501,481.266,469.724,481.434,468.912,481.434z
			 M468.854,480.303c0.696,0,1.343-0.154,1.943-0.463c0.599-0.309,1.112-0.744,1.537-1.305c0.425-0.561,0.758-1.232,1-2.016
			c0.242-0.783,0.362-1.648,0.362-2.596c0-0.852-0.082-1.643-0.246-2.379c-0.165-0.734-0.421-1.367-0.769-1.898
			c-0.348-0.531-0.803-0.947-1.363-1.248c-0.561-0.299-1.237-0.449-2.03-0.449c-0.696,0-1.421,0.199-2.175,0.594
			c-0.754,0.396-1.547,0.963-2.378,1.697v8.266c0.773,0.656,1.518,1.121,2.233,1.391
			C467.684,480.168,468.312,480.303,468.854,480.303z"/>
		<path fill="#98D8EE" d="M484.6,481.434c-0.889,0-1.725-0.164-2.508-0.492s-1.464-0.807-2.044-1.436s-1.04-1.393-1.377-2.291
			c-0.338-0.898-0.508-1.918-0.508-3.059s0.169-2.166,0.508-3.074c0.338-0.908,0.792-1.678,1.363-2.307
			c0.57-0.627,1.218-1.111,1.943-1.449c0.725-0.338,1.474-0.508,2.248-0.508c1.663,0,2.968,0.561,3.915,1.682
			s1.421,2.707,1.421,4.756c0,0.174,0,0.348,0,0.523c0,0.174-0.019,0.348-0.058,0.521h-10.034c0.019,0.869,0.154,1.678,0.406,2.422
			c0.251,0.744,0.604,1.381,1.058,1.914c0.454,0.531,1,0.947,1.639,1.246c0.638,0.301,1.353,0.449,2.146,0.449
			c0.754,0,1.436-0.111,2.044-0.334c0.609-0.221,1.174-0.525,1.697-0.912l0.522,0.986c-0.561,0.328-1.175,0.637-1.842,0.928
			C486.471,481.29,485.625,481.434,484.6,481.434z M479.467,473.256h8.874c0-1.797-0.368-3.137-1.102-4.016
			c-0.735-0.879-1.73-1.32-2.987-1.32c-0.6,0-1.17,0.121-1.711,0.363c-0.542,0.242-1.03,0.594-1.465,1.059
			c-0.435,0.463-0.793,1.025-1.073,1.682C479.723,471.682,479.544,472.426,479.467,473.256z"/>
		<path fill="#98D8EE" d="M493.474,481.086v-13.92h1.102l0.116,2.582h0.087c0.464-0.871,1.029-1.576,1.696-2.117
			s1.416-0.812,2.248-0.812c0.271,0,0.512,0.02,0.725,0.059c0.212,0.039,0.435,0.115,0.667,0.232l-0.29,1.158
			c-0.232-0.096-0.435-0.158-0.609-0.188c-0.174-0.029-0.396-0.043-0.667-0.043c-0.619,0-1.271,0.266-1.958,0.797
			c-0.687,0.531-1.301,1.455-1.842,2.77v9.482H493.474z"/>
		<path fill="#98D8EE" d="M507.277,481.086v-0.811c1.508-1.277,2.832-2.428,3.973-3.451c1.141-1.025,2.088-1.963,2.842-2.814
			c0.754-0.85,1.324-1.643,1.711-2.377s0.58-1.469,0.58-2.205c0-0.58-0.078-1.115-0.232-1.609c-0.155-0.492-0.396-0.922-0.725-1.289
			c-0.329-0.367-0.744-0.658-1.247-0.871s-1.102-0.318-1.798-0.318c-0.851,0-1.644,0.232-2.378,0.695
			c-0.735,0.465-1.382,1.045-1.943,1.74l-0.841-0.783c0.696-0.793,1.465-1.449,2.306-1.973c0.841-0.521,1.832-0.781,2.973-0.781
			c1.643,0,2.924,0.469,3.842,1.406c0.918,0.938,1.377,2.189,1.377,3.756c0,0.85-0.208,1.672-0.624,2.465
			c-0.416,0.793-0.996,1.613-1.74,2.465c-0.745,0.85-1.624,1.744-2.639,2.682s-2.122,1.957-3.32,3.061
			c0.522-0.039,1.048-0.074,1.581-0.102c0.531-0.029,1.048-0.045,1.551-0.045h6.119v1.16H507.277z"/>
		<path fill="#98D8EE" d="M527.055,481.434c-1.721,0-3.074-0.709-4.06-2.131c-0.986-1.42-1.479-3.592-1.479-6.51
			c0-2.92,0.493-5.086,1.479-6.496c0.986-1.412,2.339-2.117,4.06-2.117c1.74,0,3.098,0.705,4.074,2.117
			c0.976,1.41,1.465,3.576,1.465,6.496c0,2.918-0.493,5.09-1.479,6.51C530.129,480.725,528.775,481.434,527.055,481.434z
			 M527.055,480.333c1.314,0,2.349-0.652,3.103-1.957c0.754-1.305,1.131-3.166,1.131-5.582c0-2.418-0.377-4.273-1.131-5.568
			c-0.754-1.295-1.789-1.943-3.103-1.943c-1.295,0-2.325,0.648-3.089,1.943s-1.146,3.15-1.146,5.568
			c0,2.416,0.382,4.277,1.146,5.582S525.76,480.333,527.055,480.333z"/>
		<path fill="#98D8EE" d="M536.596,481.086v-1.131h4.35v-13.369h-3.306v-0.898c0.754-0.115,1.426-0.275,2.016-0.479
			c0.589-0.203,1.106-0.43,1.551-0.682h1.044v15.428h4.031v1.131H536.596z"/>
		<path fill="#98D8EE" d="M554.778,483.495c-0.735,0-1.397-0.072-1.986-0.219c-0.59-0.145-1.122-0.338-1.595-0.58
			c-0.474-0.242-0.895-0.512-1.261-0.811c-0.368-0.301-0.696-0.605-0.986-0.914l0.725-0.871c0.271,0.291,0.57,0.572,0.899,0.842
			c0.329,0.271,0.696,0.512,1.102,0.725c0.406,0.213,0.86,0.383,1.363,0.508s1.073,0.189,1.711,0.189
			c0.618,0,1.208-0.121,1.769-0.363c0.56-0.242,1.048-0.586,1.464-1.029c0.416-0.445,0.749-0.973,1-1.58
			c0.251-0.609,0.377-1.291,0.377-2.045c0-1.508-0.406-2.684-1.218-3.523c-0.812-0.842-1.914-1.262-3.306-1.262
			c-0.716,0-1.33,0.111-1.842,0.334s-1.049,0.518-1.609,0.885l-0.899-0.553l0.667-8.699h8.556v1.16h-7.396l-0.58,6.699
			c0.483-0.271,0.986-0.498,1.508-0.682s1.121-0.275,1.798-0.275c0.773,0,1.508,0.115,2.204,0.348
			c0.696,0.232,1.295,0.586,1.798,1.059c0.502,0.475,0.904,1.082,1.203,1.826c0.301,0.746,0.45,1.621,0.45,2.625
			c0,0.986-0.169,1.867-0.507,2.639c-0.34,0.773-0.783,1.426-1.334,1.959c-0.551,0.531-1.18,0.932-1.885,1.203
			C556.262,483.358,555.532,483.495,554.778,483.495z"/>
		<path fill="#98D8EE" d="M563.391,474.36v-1.045h20.881v1.045H563.391z"/>
		<path fill="#98D8EE" d="M593.029,481.434c-1.393,0-2.63-0.266-3.713-0.797c-1.082-0.531-2-1.223-2.754-2.074l0.869-0.928
			c0.696,0.793,1.527,1.422,2.494,1.885c0.967,0.465,2.002,0.697,3.104,0.697c1.469,0,2.629-0.354,3.479-1.059
			s1.276-1.629,1.276-2.77c0-0.6-0.092-1.107-0.275-1.523c-0.184-0.414-0.431-0.771-0.74-1.072
			c-0.309-0.299-0.672-0.555-1.087-0.768c-0.416-0.213-0.855-0.426-1.319-0.639l-2.9-1.305c-0.406-0.174-0.841-0.387-1.305-0.639
			c-0.465-0.25-0.885-0.566-1.262-0.943s-0.691-0.82-0.942-1.334c-0.251-0.512-0.377-1.125-0.377-1.84c0-0.697,0.14-1.33,0.421-1.9
			c0.279-0.57,0.666-1.062,1.16-1.479c0.492-0.416,1.082-0.74,1.769-0.973c0.687-0.23,1.425-0.348,2.218-0.348
			c1.16,0,2.189,0.229,3.089,0.682c0.899,0.455,1.639,0.992,2.219,1.609l-0.754,0.871c-0.562-0.58-1.218-1.049-1.972-1.406
			c-0.754-0.359-1.615-0.537-2.582-0.537c-1.275,0-2.301,0.309-3.074,0.928s-1.159,1.449-1.159,2.494
			c0,0.561,0.106,1.035,0.319,1.42c0.212,0.389,0.482,0.721,0.812,1.002c0.329,0.279,0.687,0.521,1.073,0.725
			s0.754,0.383,1.102,0.537l2.9,1.275c0.541,0.232,1.053,0.492,1.537,0.783c0.482,0.289,0.908,0.629,1.275,1.016
			s0.662,0.846,0.885,1.377s0.334,1.164,0.334,1.898c0,0.736-0.146,1.418-0.436,2.045c-0.29,0.629-0.701,1.17-1.232,1.625
			c-0.531,0.453-1.174,0.811-1.928,1.072C594.798,481.305,593.957,481.434,593.029,481.434z"/>
		<path fill="#98D8EE" d="M608.428,481.434c-0.889,0-1.725-0.164-2.508-0.492s-1.465-0.807-2.045-1.436s-1.039-1.393-1.377-2.291
			c-0.339-0.898-0.508-1.918-0.508-3.059s0.169-2.166,0.508-3.074c0.338-0.908,0.792-1.678,1.362-2.307
			c0.57-0.627,1.218-1.111,1.942-1.449c0.726-0.338,1.475-0.508,2.248-0.508c1.662,0,2.968,0.561,3.915,1.682
			s1.421,2.707,1.421,4.756c0,0.174,0,0.348,0,0.523c0,0.174-0.02,0.348-0.058,0.521h-10.034c0.02,0.869,0.154,1.678,0.406,2.422
			c0.251,0.744,0.604,1.381,1.059,1.914c0.453,0.531,1,0.947,1.639,1.246c0.638,0.301,1.353,0.449,2.146,0.449
			c0.754,0,1.436-0.111,2.044-0.334c0.609-0.221,1.175-0.525,1.697-0.912l0.521,0.986c-0.561,0.328-1.174,0.637-1.842,0.928
			C610.299,481.29,609.453,481.434,608.428,481.434z M603.295,473.256h8.874c0-1.797-0.368-3.137-1.103-4.016s-1.73-1.32-2.986-1.32
			c-0.6,0-1.17,0.121-1.711,0.363s-1.029,0.594-1.465,1.059c-0.436,0.463-0.793,1.025-1.072,1.682
			C603.551,471.682,603.372,472.426,603.295,473.256z"/>
		<path fill="#98D8EE" d="M617.301,487.379v-20.213h1.103l0.116,1.74h0.087c0.677-0.541,1.416-1.023,2.218-1.449
			c0.803-0.426,1.639-0.639,2.51-0.639c1.855,0,3.248,0.643,4.176,1.928c0.928,1.287,1.392,3.012,1.392,5.178
			c0,1.18-0.165,2.232-0.493,3.16c-0.329,0.928-0.778,1.717-1.349,2.363c-0.57,0.648-1.228,1.143-1.972,1.48
			s-1.522,0.506-2.334,0.506c-0.658,0-1.334-0.148-2.031-0.449c-0.695-0.299-1.41-0.719-2.146-1.262v7.656H617.301z
			 M622.695,480.303c0.695,0,1.344-0.154,1.943-0.463c0.599-0.309,1.111-0.744,1.537-1.305c0.424-0.561,0.758-1.232,1-2.016
			s0.362-1.648,0.362-2.596c0-0.852-0.082-1.643-0.246-2.379c-0.165-0.734-0.421-1.367-0.769-1.898s-0.803-0.947-1.363-1.248
			c-0.561-0.299-1.237-0.449-2.029-0.449c-0.697,0-1.417,0.199-2.161,0.594c-0.745,0.396-1.542,0.963-2.393,1.697v8.266
			c0.812,0.656,1.565,1.121,2.263,1.391C621.535,480.168,622.154,480.303,622.695,480.303z"/>
		<path fill="#98D8EE" d="M636.673,481.434c-0.677,0-1.237-0.102-1.682-0.303c-0.445-0.203-0.803-0.488-1.073-0.855
			c-0.271-0.367-0.459-0.812-0.565-1.336c-0.106-0.521-0.159-1.092-0.159-1.711v-8.961h-2.176v-0.984l2.205-0.117l0.174-4.031h1.102
			v4.031h4.031v1.102h-4.031v9.078c0,0.445,0.033,0.846,0.102,1.203c0.067,0.357,0.188,0.668,0.362,0.928
			c0.175,0.262,0.411,0.465,0.71,0.609c0.301,0.145,0.691,0.217,1.176,0.217c0.27,0,0.564-0.043,0.884-0.129
			c0.319-0.088,0.604-0.189,0.855-0.305l0.349,1.043c-0.406,0.156-0.812,0.281-1.219,0.377
			C637.311,481.387,636.963,481.434,636.673,481.434z"/>
		<path fill="#98D8EE" d="M647.026,481.434c-0.89,0-1.726-0.164-2.509-0.492s-1.464-0.807-2.044-1.436s-1.04-1.393-1.378-2.291
			s-0.508-1.918-0.508-3.059s0.17-2.166,0.508-3.074s0.793-1.678,1.363-2.307c0.57-0.627,1.219-1.111,1.943-1.449
			s1.474-0.508,2.247-0.508c1.663,0,2.968,0.561,3.915,1.682s1.421,2.707,1.421,4.756c0,0.174,0,0.348,0,0.523
			c0,0.174-0.019,0.348-0.058,0.521h-10.034c0.019,0.869,0.154,1.678,0.406,2.422c0.251,0.744,0.604,1.381,1.058,1.914
			c0.455,0.531,1.001,0.947,1.639,1.246c0.639,0.301,1.354,0.449,2.146,0.449c0.754,0,1.436-0.111,2.045-0.334
			c0.608-0.221,1.174-0.525,1.696-0.912l0.522,0.986c-0.562,0.328-1.176,0.637-1.842,0.928
			C648.896,481.29,648.051,481.434,647.026,481.434z M641.894,473.256h8.874c0-1.797-0.367-3.137-1.102-4.016
			c-0.735-0.879-1.73-1.32-2.987-1.32c-0.6,0-1.17,0.121-1.711,0.363c-0.542,0.242-1.03,0.594-1.465,1.059
			c-0.435,0.463-0.793,1.025-1.073,1.682C642.149,471.682,641.971,472.426,641.894,473.256z"/>
		<path fill="#98D8EE" d="M655.9,481.086v-13.92h1.102l0.117,2.146h0.086c0.619-0.715,1.311-1.311,2.074-1.783
			c0.764-0.475,1.531-0.711,2.305-0.711c1.121,0,1.982,0.256,2.582,0.77c0.599,0.512,1.023,1.203,1.275,2.072
			c0.812-0.869,1.6-1.561,2.363-2.072c0.764-0.514,1.552-0.77,2.363-0.77c2.785,0,4.176,1.779,4.176,5.336v8.932h-1.305v-8.758
			c0-1.488-0.251-2.586-0.754-3.291s-1.285-1.059-2.349-1.059c-1.257,0-2.649,0.869-4.177,2.609v10.498h-1.275v-8.758
			c0-1.488-0.252-2.586-0.754-3.291c-0.503-0.705-1.295-1.059-2.378-1.059c-1.257,0-2.649,0.869-4.177,2.609v10.498H655.9z"/>
		<path fill="#98D8EE" d="M685.045,481.434c-0.677,0-1.377-0.158-2.102-0.479c-0.726-0.318-1.417-0.748-2.074-1.289h-0.058
			l-0.146,1.42h-1.072v-20.85h1.275v6.031l-0.058,2.727c0.715-0.6,1.479-1.111,2.29-1.537c0.812-0.426,1.654-0.639,2.523-0.639
			c1.856,0,3.248,0.643,4.176,1.928c0.929,1.287,1.393,3.012,1.393,5.178c0,1.18-0.164,2.232-0.493,3.16s-0.778,1.717-1.349,2.363
			c-0.57,0.648-1.228,1.143-1.972,1.48C686.635,481.266,685.857,481.434,685.045,481.434z M684.987,480.303
			c0.696,0,1.343-0.154,1.942-0.463s1.112-0.744,1.537-1.305c0.426-0.561,0.759-1.232,1.001-2.016
			c0.241-0.783,0.362-1.648,0.362-2.596c0-0.852-0.082-1.643-0.246-2.379c-0.164-0.734-0.421-1.367-0.769-1.898
			c-0.349-0.531-0.803-0.947-1.363-1.248c-0.562-0.299-1.237-0.449-2.03-0.449c-0.695,0-1.42,0.199-2.175,0.594
			c-0.754,0.396-1.547,0.963-2.378,1.697v8.266c0.773,0.656,1.518,1.121,2.232,1.391
			C683.817,480.168,684.445,480.303,684.987,480.303z"/>
		<path fill="#98D8EE" d="M700.734,481.434c-0.89,0-1.726-0.164-2.509-0.492s-1.464-0.807-2.044-1.436s-1.04-1.393-1.378-2.291
			c-0.339-0.898-0.508-1.918-0.508-3.059s0.169-2.166,0.508-3.074c0.338-0.908,0.792-1.678,1.362-2.307
			c0.57-0.627,1.219-1.111,1.943-1.449s1.475-0.508,2.248-0.508c1.662,0,2.967,0.561,3.914,1.682s1.422,2.707,1.422,4.756
			c0,0.174,0,0.348,0,0.523c0,0.174-0.02,0.348-0.059,0.521h-10.033c0.019,0.869,0.154,1.678,0.406,2.422
			c0.25,0.744,0.604,1.381,1.058,1.914c0.454,0.531,1.001,0.947,1.639,1.246c0.638,0.301,1.353,0.449,2.146,0.449
			c0.754,0,1.436-0.111,2.045-0.334c0.609-0.221,1.174-0.525,1.697-0.912l0.521,0.986c-0.561,0.328-1.175,0.637-1.842,0.928
			C702.604,481.29,701.759,481.434,700.734,481.434z M695.602,473.256h8.873c0-1.797-0.367-3.137-1.102-4.016s-1.73-1.32-2.986-1.32
			c-0.6,0-1.17,0.121-1.711,0.363c-0.542,0.242-1.03,0.594-1.465,1.059c-0.436,0.463-0.793,1.025-1.073,1.682
			C695.857,471.682,695.678,472.426,695.602,473.256z"/>
		<path fill="#98D8EE" d="M709.607,481.086v-13.92h1.102l0.117,2.582h0.086c0.465-0.871,1.029-1.576,1.697-2.117
			c0.666-0.541,1.416-0.812,2.247-0.812c0.271,0,0.513,0.02,0.726,0.059c0.212,0.039,0.435,0.115,0.666,0.232l-0.289,1.158
			c-0.232-0.096-0.436-0.158-0.609-0.188s-0.396-0.043-0.667-0.043c-0.619,0-1.271,0.266-1.958,0.797
			c-0.686,0.531-1.301,1.455-1.842,2.77v9.482H709.607z"/>
		<path fill="#98D8EE" d="M723.411,481.086v-0.811c1.508-1.277,2.832-2.428,3.974-3.451c1.141-1.025,2.088-1.963,2.842-2.814
			c0.754-0.85,1.324-1.643,1.711-2.377s0.58-1.469,0.58-2.205c0-0.58-0.078-1.115-0.232-1.609c-0.154-0.492-0.396-0.922-0.725-1.289
			c-0.33-0.367-0.744-0.658-1.248-0.871c-0.502-0.213-1.102-0.318-1.797-0.318c-0.852,0-1.645,0.232-2.379,0.695
			c-0.734,0.465-1.382,1.045-1.942,1.74l-0.841-0.783c0.695-0.793,1.465-1.449,2.305-1.973c0.842-0.521,1.832-0.781,2.973-0.781
			c1.644,0,2.924,0.469,3.843,1.406c0.918,0.938,1.378,2.189,1.378,3.756c0,0.85-0.209,1.672-0.624,2.465
			c-0.416,0.793-0.995,1.613-1.739,2.465c-0.745,0.85-1.625,1.744-2.64,2.682s-2.122,1.957-3.32,3.061
			c0.522-0.039,1.048-0.074,1.581-0.102c0.531-0.029,1.048-0.045,1.551-0.045h6.119v1.16H723.411z"/>
		<path fill="#98D8EE" d="M743.189,481.434c-1.722,0-3.074-0.709-4.061-2.131c-0.986-1.42-1.479-3.592-1.479-6.51
			c0-2.92,0.492-5.086,1.479-6.496c0.986-1.412,2.339-2.117,4.061-2.117c1.739,0,3.098,0.705,4.074,2.117
			c0.976,1.41,1.465,3.576,1.465,6.496c0,2.918-0.494,5.09-1.479,6.51C746.263,480.725,744.909,481.434,743.189,481.434z
			 M743.189,480.333c1.314,0,2.348-0.652,3.103-1.957c0.754-1.305,1.131-3.166,1.131-5.582c0-2.418-0.377-4.273-1.131-5.568
			c-0.755-1.295-1.788-1.943-3.103-1.943c-1.296,0-2.326,0.648-3.09,1.943s-1.145,3.15-1.145,5.568c0,2.416,0.381,4.277,1.145,5.582
			S741.894,480.333,743.189,480.333z"/>
		<path fill="#98D8EE" d="M752.729,481.086v-1.131h4.351v-13.369h-3.307v-0.898c0.754-0.115,1.426-0.275,2.016-0.479
			s1.106-0.43,1.551-0.682h1.045v15.428h4.031v1.131H752.729z"/>
		<path fill="#98D8EE" d="M770.042,483.495c-0.89,0-1.657-0.156-2.306-0.465c-0.647-0.309-1.232-0.725-1.754-1.246l0.695-0.93
			c0.928,1.006,2.049,1.51,3.364,1.51c0.696,0,1.358-0.15,1.987-0.451c0.627-0.299,1.184-0.793,1.667-1.479s0.88-1.584,1.188-2.697
			c0.31-1.111,0.483-2.479,0.522-4.104c-0.638,0.793-1.373,1.418-2.204,1.871c-0.832,0.455-1.721,0.682-2.668,0.682
			c-1.721,0-3.025-0.512-3.915-1.537s-1.334-2.494-1.334-4.408c0-0.869,0.146-1.678,0.435-2.422c0.291-0.744,0.677-1.387,1.16-1.928
			s1.049-0.961,1.697-1.262c0.646-0.299,1.328-0.449,2.044-0.449c1.914,0,3.407,0.768,4.48,2.305s1.609,3.697,1.609,6.482
			c0,1.914-0.179,3.543-0.536,4.887s-0.842,2.432-1.45,3.262c-0.608,0.832-1.319,1.436-2.132,1.812
			C771.782,483.305,770.932,483.495,770.042,483.495z M770.68,475.114c0.754,0,1.547-0.219,2.379-0.654
			c0.83-0.434,1.613-1.164,2.349-2.189c-0.039-1.043-0.165-1.996-0.377-2.855c-0.214-0.859-0.518-1.596-0.913-2.205
			c-0.396-0.607-0.891-1.082-1.479-1.42c-0.59-0.338-1.271-0.508-2.044-0.508c-0.58,0-1.117,0.127-1.61,0.377
			c-0.493,0.252-0.919,0.605-1.276,1.059c-0.357,0.455-0.637,0.982-0.84,1.58c-0.203,0.6-0.305,1.248-0.305,1.943
			s0.072,1.344,0.217,1.943c0.146,0.6,0.382,1.117,0.711,1.551c0.328,0.436,0.754,0.773,1.275,1.016
			C769.288,474.993,769.926,475.114,770.68,475.114z"/>
	</g>
	<g>
		<path fill="#B7312C" d="M366.093,464.25c0.75-4.981-1.797-10.153-5.813-13.042c-4.367-3.14-10.286-3.504-14.98-0.997
			c-2.416,1.291-4.43,3.275-5.757,5.661c-1.224,2.197-1.919,4.812-1.778,7.331c0.099,1.687,0.576,3.363,1.068,4.973
			c0.317,1.042,0.67,2.072,1.041,3.096c0.205,0.573,0.416,1.134,0.63,1.701c0.114,0.287,0.225,0.581,0.341,0.87
			c0.055,0.144,0.114,0.291,0.173,0.44c0.04,0.103,0.17,0.303,0.119,0.415c0.01-0.013,0.022-0.024,0.033-0.03
			c1.915,4.782,4.076,9.471,6.315,14.107c1.394,2.895,2.828,5.777,4.312,8.637c0.064,0.123,0.126,0.246,0.194,0.369
			c0.622-1.191,1.233-2.395,1.838-3.595c1.444-2.872,2.853-5.761,4.215-8.674c1.639-3.483,3.211-6.998,4.649-10.562
			c1.218-3.022,2.409-6.109,3.132-9.294C365.927,465.188,366.015,464.723,366.093,464.25z"/>
		<path fill="#FFFFFF" d="M354.984,464.009c-0.539,1.119-1.679,1.896-3.006,1.896c-1.841,0-3.329-1.488-3.329-3.332
			c0-1.837,1.488-3.326,3.329-3.326c1.274,0,2.383,0.72,2.942,1.771c0.004,0.012,0.234,0.734,0.234,0.734l6.798-0.321
			c0,0-0.042-0.48-0.047-0.505c-0.252-1.555-0.861-2.988-1.738-4.214h0.005c-1.814-2.534-4.784-4.189-8.143-4.189
			c-2.883,0-5.486,1.22-7.312,3.183h-0.01c-1.669,1.785-2.694,4.186-2.694,6.825c0,5.527,4.479,10.006,10.01,10.006
			c4.935,0,9.036-3.571,9.857-8.275c0.006-0.025,0.068-0.452,0.068-0.452l-6.808-0.337
			C355.142,463.472,354.984,463.997,354.984,464.009z"/>
	</g>
</g>
</svg>
